<svg width="128" height="128" viewBox="0 0 128 128" fill="none" xmlns="http://www.w3.org/2000/svg">
<rect width="128" height="128" fill="#1E1E1E"/>
<path d="M100 -0.000152588C115.464 -2.06457e-05 128 12.536 128 27.9998V99.9998C128 115.464 115.464 128 100 128H28.0002C12.5363 128 0.000244141 115.464 0.000244141 99.9998V27.9998C0.000326611 12.5359 12.5363 -0.000152588 28.0002 -0.000152588H100ZM83.7532 30.1278C80.8766 27.2913 76.2128 27.2913 73.3362 30.1278C70.4599 32.9642 70.4597 37.5629 73.3362 40.3993C76.6848 43.7011 78.5705 48.2073 78.5706 52.91V58.2918C78.5706 60.9929 75.3134 62.356 73.3899 60.4598L43.9094 31.3905C40.3252 27.8565 34.5142 27.8566 30.9299 31.3905C27.3457 34.9247 27.3457 40.6551 30.9299 44.1893L36.8049 49.9823C38.7108 51.8615 39.7834 54.4268 39.7834 57.1034V71.2313C39.7834 71.8599 39.0261 72.1772 38.5784 71.7362C35.7009 68.8989 31.0359 68.8989 28.1584 71.7362C25.281 74.5734 25.281 79.1733 28.1584 82.0106L44.2444 97.8719C47.1218 100.709 51.7869 100.709 54.6643 97.8719C57.5417 95.0347 57.5417 90.4347 54.6643 87.5975C51.2795 84.2599 49.3743 79.7046 49.3743 74.951V69.6502C49.3744 66.9495 52.6308 65.587 54.554 67.4832L83.9417 96.4608C87.5259 99.9949 93.3369 99.995 96.9211 96.4608C100.505 92.9266 100.505 87.1962 96.9211 83.662L91.1389 77.9608C89.2332 76.0816 88.1604 73.5191 88.1604 70.8426V56.7909C88.1604 56.1313 88.9553 55.8007 89.425 56.2635C92.3017 59.1 96.9664 59.1 99.843 56.2635C102.719 53.4272 102.719 48.8284 99.843 45.992L83.7532 30.1278Z" fill="white"/>
</svg>
