<svg width="540" height="360" viewBox="0 0 540 360" fill="none" xmlns="http://www.w3.org/2000/svg">
<g clip-path="url(#clip0_596_70)">
<rect x="212" y="-41" width="352" height="285" rx="14" fill="#696969"/>
<rect x="212.5" y="-40.5" width="351" height="284" rx="13.5" stroke="white" stroke-opacity="0.12"/>
<g filter="url(#filter0_d_596_70)">
<rect x="272" y="-79" width="323" height="273" rx="8" fill="url(#paint0_radial_596_70)"/>
<rect x="272.5" y="-78.5" width="322" height="272" rx="7.5" stroke="white" stroke-opacity="0.12"/>
</g>
<rect x="-36" y="105" width="283" height="285" rx="14" fill="#333333"/>
<rect x="-35.5" y="105.5" width="282" height="284" rx="13.5" stroke="white" stroke-opacity="0.12"/>
<rect x="-36" y="157" width="243" height="233" rx="14" fill="#2D2D2D"/>
<rect x="-35.5" y="157.5" width="242" height="232" rx="13.5" stroke="white" stroke-opacity="0.12"/>
<g filter="url(#filter1_d_596_70)">
<rect x="-24" y="186" width="184" height="38" rx="5" fill="#D39736"/>
<rect x="-23.5" y="186.5" width="183" height="37" rx="4.5" stroke="#E0B56F"/>
</g>
<g filter="url(#filter2_d_596_70)">
<rect x="44" y="240" width="140" height="38" rx="5" fill="#D39736"/>
<rect x="44.5" y="240.5" width="139" height="37" rx="4.5" stroke="#E0B56F"/>
</g>
<rect x="44.5" y="240.5" width="31" height="37" rx="4.5" fill="#E8B86B" stroke="#E8B86B"/>
<rect x="-15.5" y="186.5" width="31" height="37" rx="4.5" fill="#E8B86B" stroke="#E8B86B"/>
<g filter="url(#filter3_d_596_70)">
<rect x="-49" y="294" width="140" height="38" rx="5" fill="#D39736"/>
<rect x="-48.5" y="294.5" width="139" height="37" rx="4.5" stroke="#E0B56F"/>
</g>
<g clip-path="url(#clip1_596_70)">
<path d="M340.295 203.191L317.251 177.191L291.25 200.235" stroke="url(#paint1_linear_596_70)" stroke-width="10" stroke-linecap="round" stroke-linejoin="round"/>
<path d="M223.885 228.989C233.053 239.333 245.954 245.611 259.751 246.443C273.547 247.275 287.109 242.592 297.453 233.424C307.043 224.908 313.155 213.154 314.621 200.413L317.251 177.191" stroke="url(#paint2_linear_596_70)" stroke-width="10" stroke-linecap="round" stroke-linejoin="round"/>
</g>
<path d="M312 94.25H550" stroke="black" stroke-width="1.5" stroke-linecap="round"/>
<path d="M312 105.75H550" stroke="black" stroke-width="1.5" stroke-linecap="round"/>
<path d="M312 117.25H550" stroke="black" stroke-width="1.5" stroke-linecap="round"/>
<path d="M312 128.75H550" stroke="black" stroke-width="1.5" stroke-linecap="round"/>
<path d="M312 140.25H550" stroke="black" stroke-width="1.5" stroke-linecap="round"/>
<path d="M312 11.25H550" stroke="black" stroke-width="1.5" stroke-linecap="round"/>
<path d="M312 22.75H550" stroke="black" stroke-width="1.5" stroke-linecap="round"/>
<path d="M312 34.25H550" stroke="black" stroke-width="1.5" stroke-linecap="round"/>
<path d="M312 45.75H550" stroke="black" stroke-width="1.5" stroke-linecap="round"/>
<path d="M312 57.25H550" stroke="black" stroke-width="1.5" stroke-linecap="round"/>
<ellipse cx="351" cy="123.348" rx="6" ry="3.65217" transform="rotate(-20 351 123.348)" fill="black"/>
<ellipse cx="384" cy="123.348" rx="6" ry="3.65217" transform="rotate(-20 384 123.348)" fill="black"/>
<ellipse cx="417" cy="116.652" rx="6" ry="3.65217" transform="rotate(-20 417 116.652)" fill="black"/>
<ellipse cx="450" cy="123.348" rx="6" ry="3.65217" transform="rotate(-20 450 123.348)" fill="black"/>
<ellipse cx="483" cy="123.348" rx="6" ry="3.65217" transform="rotate(-20 483 123.348)" fill="black"/>
<ellipse cx="516" cy="116.652" rx="6" ry="3.65217" transform="rotate(-20 516 116.652)" fill="black"/>
<line x1="356" y1="122" x2="356" y2="90" stroke="black" stroke-width="2" stroke-linecap="round"/>
<line x1="389" y1="122" x2="389" y2="90" stroke="black" stroke-width="2" stroke-linecap="round"/>
<line x1="455" y1="122" x2="455" y2="90" stroke="black" stroke-width="2" stroke-linecap="round"/>
<line x1="488" y1="122" x2="488" y2="90" stroke="black" stroke-width="2" stroke-linecap="round"/>
<line x1="521" y1="116" x2="521" y2="84" stroke="black" stroke-width="2" stroke-linecap="round"/>
<line x1="422" y1="116" x2="422" y2="84" stroke="black" stroke-width="2" stroke-linecap="round"/>
<path d="M226.5 124.5L213.5 137.5M213.5 124.5L226.5 137.5" stroke="#545454" stroke-width="4" stroke-linecap="round" stroke-linejoin="round"/>
</g>
<defs>
<filter id="filter0_d_596_70" x="262" y="-85" width="343" height="293" filterUnits="userSpaceOnUse" color-interpolation-filters="sRGB">
<feFlood flood-opacity="0" result="BackgroundImageFix"/>
<feColorMatrix in="SourceAlpha" type="matrix" values="0 0 0 0 0 0 0 0 0 0 0 0 0 0 0 0 0 0 127 0" result="hardAlpha"/>
<feOffset dy="4"/>
<feGaussianBlur stdDeviation="5"/>
<feComposite in2="hardAlpha" operator="out"/>
<feColorMatrix type="matrix" values="0 0 0 0 0 0 0 0 0 0 0 0 0 0 0 0 0 0 0.25 0"/>
<feBlend mode="normal" in2="BackgroundImageFix" result="effect1_dropShadow_596_70"/>
<feBlend mode="normal" in="SourceGraphic" in2="effect1_dropShadow_596_70" result="shape"/>
</filter>
<filter id="filter1_d_596_70" x="-28" y="186" width="192" height="46" filterUnits="userSpaceOnUse" color-interpolation-filters="sRGB">
<feFlood flood-opacity="0" result="BackgroundImageFix"/>
<feColorMatrix in="SourceAlpha" type="matrix" values="0 0 0 0 0 0 0 0 0 0 0 0 0 0 0 0 0 0 127 0" result="hardAlpha"/>
<feOffset dy="4"/>
<feGaussianBlur stdDeviation="2"/>
<feComposite in2="hardAlpha" operator="out"/>
<feColorMatrix type="matrix" values="0 0 0 0 0 0 0 0 0 0 0 0 0 0 0 0 0 0 0.15 0"/>
<feBlend mode="normal" in2="BackgroundImageFix" result="effect1_dropShadow_596_70"/>
<feBlend mode="normal" in="SourceGraphic" in2="effect1_dropShadow_596_70" result="shape"/>
</filter>
<filter id="filter2_d_596_70" x="40" y="240" width="148" height="46" filterUnits="userSpaceOnUse" color-interpolation-filters="sRGB">
<feFlood flood-opacity="0" result="BackgroundImageFix"/>
<feColorMatrix in="SourceAlpha" type="matrix" values="0 0 0 0 0 0 0 0 0 0 0 0 0 0 0 0 0 0 127 0" result="hardAlpha"/>
<feOffset dy="4"/>
<feGaussianBlur stdDeviation="2"/>
<feComposite in2="hardAlpha" operator="out"/>
<feColorMatrix type="matrix" values="0 0 0 0 0 0 0 0 0 0 0 0 0 0 0 0 0 0 0.15 0"/>
<feBlend mode="normal" in2="BackgroundImageFix" result="effect1_dropShadow_596_70"/>
<feBlend mode="normal" in="SourceGraphic" in2="effect1_dropShadow_596_70" result="shape"/>
</filter>
<filter id="filter3_d_596_70" x="-53" y="294" width="148" height="46" filterUnits="userSpaceOnUse" color-interpolation-filters="sRGB">
<feFlood flood-opacity="0" result="BackgroundImageFix"/>
<feColorMatrix in="SourceAlpha" type="matrix" values="0 0 0 0 0 0 0 0 0 0 0 0 0 0 0 0 0 0 127 0" result="hardAlpha"/>
<feOffset dy="4"/>
<feGaussianBlur stdDeviation="2"/>
<feComposite in2="hardAlpha" operator="out"/>
<feColorMatrix type="matrix" values="0 0 0 0 0 0 0 0 0 0 0 0 0 0 0 0 0 0 0.15 0"/>
<feBlend mode="normal" in2="BackgroundImageFix" result="effect1_dropShadow_596_70"/>
<feBlend mode="normal" in="SourceGraphic" in2="effect1_dropShadow_596_70" result="shape"/>
</filter>
<radialGradient id="paint0_radial_596_70" cx="0" cy="0" r="1" gradientUnits="userSpaceOnUse" gradientTransform="translate(312 245) rotate(-22.7704) scale(131.77 155.903)">
<stop stop-color="#B2B2B2"/>
<stop offset="1" stop-color="#E8E8E8"/>
</radialGradient>
<linearGradient id="paint1_linear_596_70" x1="316" y1="183" x2="245.405" y2="253.052" gradientUnits="userSpaceOnUse">
<stop stop-color="#D08E13"/>
<stop offset="1" stop-color="#E627A7"/>
</linearGradient>
<linearGradient id="paint2_linear_596_70" x1="325.5" y1="193" x2="224" y2="254" gradientUnits="userSpaceOnUse">
<stop stop-color="#D08E13"/>
<stop offset="1" stop-color="#E627A7"/>
</linearGradient>
<clipPath id="clip0_596_70">
<rect width="540" height="360" fill="white"/>
</clipPath>
<clipPath id="clip1_596_70">
<rect width="138.973" height="138.973" fill="white" transform="matrix(0.748376 -0.663274 -0.663274 -0.748376 276.177 314.181)"/>
</clipPath>
</defs>
</svg>
