<svg width="1022" height="511" viewBox="0 0 1022 511" fill="none" xmlns="http://www.w3.org/2000/svg">
<rect width="1022" height="511" fill="#1E1E1E"/>
<rect width="1022" height="510" fill="black"/>
<rect x="512" width="30" height="30" rx="3" fill="#1C1C1C"/>
<rect x="544" width="30" height="30" rx="3" fill="#1C1C1C"/>
<rect x="576" width="30" height="30" rx="3" fill="#1C1C1C"/>
<rect x="608" width="30" height="30" rx="3" fill="#242424"/>
<rect x="512" y="32" width="30" height="30" rx="3" fill="#2B2B2B"/>
<rect x="544" y="32" width="30" height="30" rx="3" fill="#2B2B2B"/>
<rect x="576" y="32" width="30" height="30" rx="3" fill="#2B2B2B"/>
<rect x="608" y="32" width="30" height="30" rx="3" fill="#333333"/>
<rect x="640" width="30" height="30" rx="3" fill="#1C1C1C"/>
<rect x="672" width="30" height="30" rx="3" fill="#1C1C1C"/>
<rect x="704" width="30" height="30" rx="3" fill="#1C1C1C"/>
<rect x="736" width="30" height="30" rx="3" fill="#242424"/>
<rect x="640" y="32" width="30" height="30" rx="3" fill="#2B2B2B"/>
<rect x="672" y="32" width="30" height="30" rx="3" fill="#2B2B2B"/>
<rect x="704" y="32" width="30" height="30" rx="3" fill="#2B2B2B"/>
<rect x="736" y="32" width="30" height="30" rx="3" fill="#333333"/>
<rect x="512" y="64" width="30" height="30" rx="3" fill="#1C1C1C"/>
<rect x="544" y="64" width="30" height="30" rx="3" fill="#1C1C1C"/>
<rect x="576" y="64" width="30" height="30" rx="3" fill="#1C1C1C"/>
<rect x="608" y="64" width="30" height="30" rx="3" fill="#242424"/>
<rect x="512" y="96" width="30" height="30" rx="3" fill="#2B2B2B"/>
<rect x="544" y="96" width="30" height="30" rx="3" fill="#2B2B2B"/>
<rect x="576" y="96" width="30" height="30" rx="3" fill="#2B2B2B"/>
<rect x="608" y="96" width="30" height="30" rx="3" fill="#333333"/>
<rect x="640" y="64" width="30" height="30" rx="3" fill="#1C1C1C"/>
<rect x="672" y="64" width="30" height="30" rx="3" fill="#1C1C1C"/>
<rect x="704" y="64" width="30" height="30" rx="3" fill="#1C1C1C"/>
<rect x="736" y="64" width="30" height="30" rx="3" fill="#242424"/>
<rect x="640" y="96" width="30" height="30" rx="3" fill="#2B2B2B"/>
<rect x="672" y="96" width="30" height="30" rx="3" fill="#2B2B2B"/>
<rect x="704" y="96" width="30" height="30" rx="3" fill="#2B2B2B"/>
<rect x="736" y="96" width="30" height="30" rx="3" fill="#333333"/>
<rect x="512" y="128" width="30" height="30" rx="3" fill="#1C1C1C"/>
<rect x="544" y="128" width="30" height="30" rx="3" fill="#1C1C1C"/>
<rect x="576" y="128" width="30" height="30" rx="3" fill="#1C1C1C"/>
<rect x="608" y="128" width="30" height="30" rx="3" fill="#242424"/>
<rect x="512" y="160" width="30" height="30" rx="3" fill="#2B2B2B"/>
<rect x="544" y="160" width="30" height="30" rx="3" fill="#2B2B2B"/>
<rect x="576" y="160" width="30" height="30" rx="3" fill="#2B2B2B"/>
<rect x="608" y="160" width="30" height="30" rx="3" fill="#333333"/>
<rect x="640" y="128" width="30" height="30" rx="3" fill="#1C1C1C"/>
<rect x="672" y="128" width="30" height="30" rx="3" fill="#1C1C1C"/>
<rect x="704" y="128" width="30" height="30" rx="3" fill="#1C1C1C"/>
<rect x="736" y="128" width="30" height="30" rx="3" fill="#242424"/>
<rect x="640" y="160" width="30" height="30" rx="3" fill="#2B2B2B"/>
<rect x="672" y="160" width="30" height="30" rx="3" fill="#2B2B2B"/>
<rect x="704" y="160" width="30" height="30" rx="3" fill="#2B2B2B"/>
<rect x="736" y="160" width="30" height="30" rx="3" fill="#333333"/>
<rect x="512" y="192" width="30" height="30" rx="3" fill="#1C1C1C"/>
<rect x="544" y="192" width="30" height="30" rx="3" fill="#1C1C1C"/>
<rect x="576" y="192" width="30" height="30" rx="3" fill="#1C1C1C"/>
<rect x="608" y="192" width="30" height="30" rx="3" fill="#242424"/>
<rect x="512" y="224" width="30" height="30" rx="3" fill="#2B2B2B"/>
<rect x="544" y="224" width="30" height="30" rx="3" fill="#2B2B2B"/>
<rect x="576" y="224" width="30" height="30" rx="3" fill="#2B2B2B"/>
<rect x="608" y="224" width="30" height="30" rx="3" fill="#333333"/>
<rect x="640" y="192" width="30" height="30" rx="3" fill="#1C1C1C"/>
<rect x="672" y="192" width="30" height="30" rx="3" fill="#1C1C1C"/>
<rect x="704" y="192" width="30" height="30" rx="3" fill="#1C1C1C"/>
<rect x="736" y="192" width="30" height="30" rx="3" fill="#242424"/>
<rect x="640" y="224" width="30" height="30" rx="3" fill="#2B2B2B"/>
<rect x="672" y="224" width="30" height="30" rx="3" fill="#2B2B2B"/>
<rect x="704" y="224" width="30" height="30" rx="3" fill="#2B2B2B"/>
<rect x="736" y="224" width="30" height="30" rx="3" fill="#333333"/>
<rect x="768" width="30" height="30" rx="3" fill="#1C1C1C"/>
<rect x="800" width="30" height="30" rx="3" fill="#1C1C1C"/>
<rect x="832" width="30" height="30" rx="3" fill="#1C1C1C"/>
<rect x="864" width="30" height="30" rx="3" fill="#242424"/>
<rect x="768" y="32" width="30" height="30" rx="3" fill="#2B2B2B"/>
<rect x="800" y="32" width="30" height="30" rx="3" fill="#2B2B2B"/>
<rect x="832" y="32" width="30" height="30" rx="3" fill="#2B2B2B"/>
<rect x="864" y="32" width="30" height="30" rx="3" fill="#333333"/>
<rect x="896" width="30" height="30" rx="3" fill="#1C1C1C"/>
<rect x="928" width="30" height="30" rx="3" fill="#1C1C1C"/>
<rect x="960" width="30" height="30" rx="3" fill="#1C1C1C"/>
<rect x="992" width="30" height="30" rx="3" fill="#242424"/>
<rect x="896" y="32" width="30" height="30" rx="3" fill="#2B2B2B"/>
<rect x="928" y="32" width="30" height="30" rx="3" fill="#2B2B2B"/>
<rect x="960" y="32" width="30" height="30" rx="3" fill="#2B2B2B"/>
<rect x="992" y="32" width="30" height="30" rx="3" fill="#333333"/>
<rect x="768" y="64" width="30" height="30" rx="3" fill="#1C1C1C"/>
<rect x="800" y="64" width="30" height="30" rx="3" fill="#1C1C1C"/>
<rect x="832" y="64" width="30" height="30" rx="3" fill="#1C1C1C"/>
<rect x="864" y="64" width="30" height="30" rx="3" fill="#242424"/>
<rect x="768" y="96" width="30" height="30" rx="3" fill="#2B2B2B"/>
<rect x="800" y="96" width="30" height="30" rx="3" fill="#2B2B2B"/>
<rect x="832" y="96" width="30" height="30" rx="3" fill="#2B2B2B"/>
<rect x="864" y="96" width="30" height="30" rx="3" fill="#333333"/>
<rect x="896" y="64" width="30" height="30" rx="3" fill="#1C1C1C"/>
<rect x="928" y="64" width="30" height="30" rx="3" fill="#1C1C1C"/>
<rect x="960" y="64" width="30" height="30" rx="3" fill="#1C1C1C"/>
<rect x="992" y="64" width="30" height="30" rx="3" fill="#242424"/>
<rect x="896" y="96" width="30" height="30" rx="3" fill="#2B2B2B"/>
<rect x="928" y="96" width="30" height="30" rx="3" fill="#2B2B2B"/>
<rect x="960" y="96" width="30" height="30" rx="3" fill="#2B2B2B"/>
<rect x="992" y="96" width="30" height="30" rx="3" fill="#333333"/>
<rect x="768" y="128" width="30" height="30" rx="3" fill="#1C1C1C"/>
<rect x="800" y="128" width="30" height="30" rx="3" fill="#1C1C1C"/>
<rect x="832" y="128" width="30" height="30" rx="3" fill="#1C1C1C"/>
<rect x="864" y="128" width="30" height="30" rx="3" fill="#242424"/>
<rect x="768" y="160" width="30" height="30" rx="3" fill="#2B2B2B"/>
<rect x="800" y="160" width="30" height="30" rx="3" fill="#2B2B2B"/>
<rect x="832" y="160" width="30" height="30" rx="3" fill="#2B2B2B"/>
<rect x="864" y="160" width="30" height="30" rx="3" fill="#333333"/>
<rect x="896" y="128" width="30" height="30" rx="3" fill="#1C1C1C"/>
<rect x="928" y="128" width="30" height="30" rx="3" fill="#1C1C1C"/>
<rect x="960" y="128" width="30" height="30" rx="3" fill="#1C1C1C"/>
<rect x="992" y="128" width="30" height="30" rx="3" fill="#242424"/>
<rect x="896" y="160" width="30" height="30" rx="3" fill="#2B2B2B"/>
<rect x="928" y="160" width="30" height="30" rx="3" fill="#2B2B2B"/>
<rect x="960" y="160" width="30" height="30" rx="3" fill="#2B2B2B"/>
<rect x="992" y="160" width="30" height="30" rx="3" fill="#333333"/>
<rect x="768" y="192" width="30" height="30" rx="3" fill="#1C1C1C"/>
<rect x="800" y="192" width="30" height="30" rx="3" fill="#1C1C1C"/>
<rect x="832" y="192" width="30" height="30" rx="3" fill="#1C1C1C"/>
<rect x="864" y="192" width="30" height="30" rx="3" fill="#242424"/>
<rect x="768" y="224" width="30" height="30" rx="3" fill="#2B2B2B"/>
<rect x="800" y="224" width="30" height="30" rx="3" fill="#2B2B2B"/>
<rect x="832" y="224" width="30" height="30" rx="3" fill="#2B2B2B"/>
<rect x="864" y="224" width="30" height="30" rx="3" fill="#333333"/>
<rect x="896" y="192" width="30" height="30" rx="3" fill="#1C1C1C"/>
<rect x="928" y="192" width="30" height="30" rx="3" fill="#1C1C1C"/>
<rect x="960" y="192" width="30" height="30" rx="3" fill="#1C1C1C"/>
<rect x="992" y="192" width="30" height="30" rx="3" fill="#242424"/>
<rect x="896" y="224" width="30" height="30" rx="3" fill="#2B2B2B"/>
<rect x="928" y="224" width="30" height="30" rx="3" fill="#2B2B2B"/>
<rect x="960" y="224" width="30" height="30" rx="3" fill="#2B2B2B"/>
<rect x="992" y="224" width="30" height="30" rx="3" fill="#333333"/>
<rect x="512" y="256" width="30" height="30" rx="3" fill="#1C1C1C"/>
<rect x="544" y="256" width="30" height="30" rx="3" fill="#1C1C1C"/>
<rect x="576" y="256" width="30" height="30" rx="3" fill="#1C1C1C"/>
<rect x="608" y="256" width="30" height="30" rx="3" fill="#242424"/>
<rect x="512" y="288" width="30" height="30" rx="3" fill="#2B2B2B"/>
<rect x="544" y="288" width="30" height="30" rx="3" fill="#2B2B2B"/>
<rect x="576" y="288" width="30" height="30" rx="3" fill="#2B2B2B"/>
<rect x="608" y="288" width="30" height="30" rx="3" fill="#333333"/>
<rect x="640" y="256" width="30" height="30" rx="3" fill="#1C1C1C"/>
<rect x="672" y="256" width="30" height="30" rx="3" fill="#1C1C1C"/>
<rect x="704" y="256" width="30" height="30" rx="3" fill="#1C1C1C"/>
<rect x="736" y="256" width="30" height="30" rx="3" fill="#242424"/>
<rect x="640" y="288" width="30" height="30" rx="3" fill="#2B2B2B"/>
<rect x="672" y="288" width="30" height="30" rx="3" fill="#2B2B2B"/>
<rect x="704" y="288" width="30" height="30" rx="3" fill="#2B2B2B"/>
<rect x="736" y="288" width="30" height="30" rx="3" fill="#333333"/>
<rect x="512" y="320" width="30" height="30" rx="3" fill="#1C1C1C"/>
<rect x="544" y="320" width="30" height="30" rx="3" fill="#1C1C1C"/>
<rect x="576" y="320" width="30" height="30" rx="3" fill="#1C1C1C"/>
<rect x="608" y="320" width="30" height="30" rx="3" fill="#242424"/>
<rect x="512" y="352" width="30" height="30" rx="3" fill="#2B2B2B"/>
<rect x="544" y="352" width="30" height="30" rx="3" fill="#2B2B2B"/>
<rect x="576" y="352" width="30" height="30" rx="3" fill="#2B2B2B"/>
<rect x="608" y="352" width="30" height="30" rx="3" fill="#333333"/>
<rect x="640" y="320" width="30" height="30" rx="3" fill="#1C1C1C"/>
<rect x="672" y="320" width="30" height="30" rx="3" fill="#1C1C1C"/>
<rect x="704" y="320" width="30" height="30" rx="3" fill="#1C1C1C"/>
<rect x="736" y="320" width="30" height="30" rx="3" fill="#242424"/>
<rect x="640" y="352" width="30" height="30" rx="3" fill="#2B2B2B"/>
<rect x="672" y="352" width="30" height="30" rx="3" fill="#2B2B2B"/>
<rect x="704" y="352" width="30" height="30" rx="3" fill="#2B2B2B"/>
<rect x="736" y="352" width="30" height="30" rx="3" fill="#333333"/>
<rect x="512" y="384" width="30" height="30" rx="3" fill="#1C1C1C"/>
<rect x="544" y="384" width="30" height="30" rx="3" fill="#1C1C1C"/>
<rect x="576" y="384" width="30" height="30" rx="3" fill="#1C1C1C"/>
<rect x="608" y="384" width="30" height="30" rx="3" fill="#242424"/>
<rect x="512" y="416" width="30" height="30" rx="3" fill="#2B2B2B"/>
<rect x="544" y="416" width="30" height="30" rx="3" fill="#2B2B2B"/>
<rect x="576" y="416" width="30" height="30" rx="3" fill="#2B2B2B"/>
<rect x="608" y="416" width="30" height="30" rx="3" fill="#333333"/>
<rect x="640" y="384" width="30" height="30" rx="3" fill="#1C1C1C"/>
<rect x="672" y="384" width="30" height="30" rx="3" fill="#1C1C1C"/>
<rect x="704" y="384" width="30" height="30" rx="3" fill="#1C1C1C"/>
<rect x="736" y="384" width="30" height="30" rx="3" fill="#242424"/>
<rect x="640" y="416" width="30" height="30" rx="3" fill="#2B2B2B"/>
<rect x="672" y="416" width="30" height="30" rx="3" fill="#2B2B2B"/>
<rect x="704" y="416" width="30" height="30" rx="3" fill="#2B2B2B"/>
<rect x="736" y="416" width="30" height="30" rx="3" fill="#333333"/>
<rect x="512" y="448" width="30" height="30" rx="3" fill="#1C1C1C"/>
<rect x="544" y="448" width="30" height="30" rx="3" fill="#1C1C1C"/>
<rect x="576" y="448" width="30" height="30" rx="3" fill="#1C1C1C"/>
<rect x="608" y="448" width="30" height="30" rx="3" fill="#242424"/>
<rect x="512" y="480" width="30" height="30" rx="3" fill="#2B2B2B"/>
<rect x="544" y="480" width="30" height="30" rx="3" fill="#2B2B2B"/>
<rect x="576" y="480" width="30" height="30" rx="3" fill="#2B2B2B"/>
<rect x="608" y="480" width="30" height="30" rx="3" fill="#333333"/>
<rect x="640" y="448" width="30" height="30" rx="3" fill="#1C1C1C"/>
<rect x="672" y="448" width="30" height="30" rx="3" fill="#1C1C1C"/>
<rect x="704" y="448" width="30" height="30" rx="3" fill="#1C1C1C"/>
<rect x="736" y="448" width="30" height="30" rx="3" fill="#242424"/>
<rect x="640" y="480" width="30" height="30" rx="3" fill="#2B2B2B"/>
<rect x="672" y="480" width="30" height="30" rx="3" fill="#2B2B2B"/>
<rect x="704" y="480" width="30" height="30" rx="3" fill="#2B2B2B"/>
<rect x="736" y="480" width="30" height="30" rx="3" fill="#333333"/>
<rect x="768" y="256" width="30" height="30" rx="3" fill="#1C1C1C"/>
<rect x="800" y="256" width="30" height="30" rx="3" fill="#1C1C1C"/>
<rect x="832" y="256" width="30" height="30" rx="3" fill="#1C1C1C"/>
<rect x="864" y="256" width="30" height="30" rx="3" fill="#242424"/>
<rect x="768" y="288" width="30" height="30" rx="3" fill="#2B2B2B"/>
<rect x="800" y="288" width="30" height="30" rx="3" fill="#2B2B2B"/>
<rect x="832" y="288" width="30" height="30" rx="3" fill="#2B2B2B"/>
<rect x="864" y="288" width="30" height="30" rx="3" fill="#333333"/>
<rect x="896" y="256" width="30" height="30" rx="3" fill="#1C1C1C"/>
<rect x="928" y="256" width="30" height="30" rx="3" fill="#1C1C1C"/>
<rect x="960" y="256" width="30" height="30" rx="3" fill="#1C1C1C"/>
<rect x="992" y="256" width="30" height="30" rx="3" fill="#242424"/>
<rect x="896" y="288" width="30" height="30" rx="3" fill="#2B2B2B"/>
<rect x="928" y="288" width="30" height="30" rx="3" fill="#2B2B2B"/>
<rect x="960" y="288" width="30" height="30" rx="3" fill="#2B2B2B"/>
<rect x="992" y="288" width="30" height="30" rx="3" fill="#333333"/>
<rect x="768" y="320" width="30" height="30" rx="3" fill="#1C1C1C"/>
<rect x="800" y="320" width="30" height="30" rx="3" fill="#1C1C1C"/>
<rect x="832" y="320" width="30" height="30" rx="3" fill="#1C1C1C"/>
<rect x="864" y="320" width="30" height="30" rx="3" fill="#242424"/>
<rect x="768" y="352" width="30" height="30" rx="3" fill="#2B2B2B"/>
<rect x="800" y="352" width="30" height="30" rx="3" fill="#2B2B2B"/>
<rect x="832" y="352" width="30" height="30" rx="3" fill="#2B2B2B"/>
<rect x="864" y="352" width="30" height="30" rx="3" fill="#333333"/>
<rect x="896" y="320" width="30" height="30" rx="3" fill="#1C1C1C"/>
<rect x="928" y="320" width="30" height="30" rx="3" fill="#1C1C1C"/>
<rect x="960" y="320" width="30" height="30" rx="3" fill="#1C1C1C"/>
<rect x="992" y="320" width="30" height="30" rx="3" fill="#242424"/>
<rect x="896" y="352" width="30" height="30" rx="3" fill="#2B2B2B"/>
<rect x="928" y="352" width="30" height="30" rx="3" fill="#2B2B2B"/>
<rect x="960" y="352" width="30" height="30" rx="3" fill="#2B2B2B"/>
<rect x="992" y="352" width="30" height="30" rx="3" fill="#333333"/>
<rect x="768" y="384" width="30" height="30" rx="3" fill="#1C1C1C"/>
<rect x="800" y="384" width="30" height="30" rx="3" fill="#1C1C1C"/>
<rect x="832" y="384" width="30" height="30" rx="3" fill="#1C1C1C"/>
<rect x="864" y="384" width="30" height="30" rx="3" fill="#242424"/>
<rect x="768" y="416" width="30" height="30" rx="3" fill="#2B2B2B"/>
<rect x="800" y="416" width="30" height="30" rx="3" fill="#2B2B2B"/>
<rect x="832" y="416" width="30" height="30" rx="3" fill="#2B2B2B"/>
<rect x="864" y="416" width="30" height="30" rx="3" fill="#333333"/>
<rect x="896" y="384" width="30" height="30" rx="3" fill="#1C1C1C"/>
<rect x="928" y="384" width="30" height="30" rx="3" fill="#1C1C1C"/>
<rect x="960" y="384" width="30" height="30" rx="3" fill="#1C1C1C"/>
<rect x="992" y="384" width="30" height="30" rx="3" fill="#242424"/>
<rect x="896" y="416" width="30" height="30" rx="3" fill="#2B2B2B"/>
<rect x="928" y="416" width="30" height="30" rx="3" fill="#2B2B2B"/>
<rect x="960" y="416" width="30" height="30" rx="3" fill="#2B2B2B"/>
<rect x="992" y="416" width="30" height="30" rx="3" fill="#333333"/>
<rect x="768" y="448" width="30" height="30" rx="3" fill="#1C1C1C"/>
<rect x="800" y="448" width="30" height="30" rx="3" fill="#1C1C1C"/>
<rect x="832" y="448" width="30" height="30" rx="3" fill="#1C1C1C"/>
<rect x="864" y="448" width="30" height="30" rx="3" fill="#242424"/>
<rect x="768" y="480" width="30" height="30" rx="3" fill="#2B2B2B"/>
<rect x="800" y="480" width="30" height="30" rx="3" fill="#2B2B2B"/>
<rect x="832" y="480" width="30" height="30" rx="3" fill="#2B2B2B"/>
<rect x="864" y="480" width="30" height="30" rx="3" fill="#333333"/>
<rect x="896" y="448" width="30" height="30" rx="3" fill="#1C1C1C"/>
<rect x="928" y="448" width="30" height="30" rx="3" fill="#1C1C1C"/>
<rect x="960" y="448" width="30" height="30" rx="3" fill="#1C1C1C"/>
<rect x="992" y="448" width="30" height="30" rx="3" fill="#242424"/>
<rect x="896" y="480" width="30" height="30" rx="3" fill="#2B2B2B"/>
<rect x="928" y="480" width="30" height="30" rx="3" fill="#2B2B2B"/>
<rect x="960" y="480" width="30" height="30" rx="3" fill="#2B2B2B"/>
<rect x="992" y="480" width="30" height="30" rx="3" fill="#333333"/>
<rect width="30" height="30" rx="3" fill="#1C1C1C"/>
<rect x="32" width="30" height="30" rx="3" fill="#1C1C1C"/>
<rect x="64" width="30" height="30" rx="3" fill="#1C1C1C"/>
<rect x="96" width="30" height="30" rx="3" fill="#242424"/>
<rect y="32" width="30" height="30" rx="3" fill="#2B2B2B"/>
<rect x="32" y="32" width="30" height="30" rx="3" fill="#2B2B2B"/>
<rect x="64" y="32" width="30" height="30" rx="3" fill="#2B2B2B"/>
<rect x="96" y="32" width="30" height="30" rx="3" fill="#333333"/>
<rect x="128" width="30" height="30" rx="3" fill="#1C1C1C"/>
<rect x="160" width="30" height="30" rx="3" fill="#1C1C1C"/>
<rect x="192" width="30" height="30" rx="3" fill="#1C1C1C"/>
<rect x="224" width="30" height="30" rx="3" fill="#242424"/>
<rect x="128" y="32" width="30" height="30" rx="3" fill="#2B2B2B"/>
<rect x="160" y="32" width="30" height="30" rx="3" fill="#2B2B2B"/>
<rect x="192" y="32" width="30" height="30" rx="3" fill="#2B2B2B"/>
<rect x="224" y="32" width="30" height="30" rx="3" fill="#333333"/>
<rect y="64" width="30" height="30" rx="3" fill="#1C1C1C"/>
<rect x="32" y="64" width="30" height="30" rx="3" fill="#1C1C1C"/>
<rect x="64" y="64" width="30" height="30" rx="3" fill="#1C1C1C"/>
<rect x="96" y="64" width="30" height="30" rx="3" fill="#242424"/>
<rect y="96" width="30" height="30" rx="3" fill="#2B2B2B"/>
<rect x="32" y="96" width="30" height="30" rx="3" fill="#2B2B2B"/>
<rect x="64" y="96" width="30" height="30" rx="3" fill="#2B2B2B"/>
<rect x="96" y="96" width="30" height="30" rx="3" fill="#333333"/>
<rect x="128" y="64" width="30" height="30" rx="3" fill="#1C1C1C"/>
<rect x="160" y="64" width="30" height="30" rx="3" fill="#1C1C1C"/>
<rect x="192" y="64" width="30" height="30" rx="3" fill="#1C1C1C"/>
<rect x="224" y="64" width="30" height="30" rx="3" fill="#242424"/>
<rect x="128" y="96" width="30" height="30" rx="3" fill="#2B2B2B"/>
<rect x="160" y="96" width="30" height="30" rx="3" fill="#2B2B2B"/>
<rect x="192" y="96" width="30" height="30" rx="3" fill="#2B2B2B"/>
<rect x="224" y="96" width="30" height="30" rx="3" fill="#333333"/>
<rect y="128" width="30" height="30" rx="3" fill="#1C1C1C"/>
<rect x="32" y="128" width="30" height="30" rx="3" fill="#1C1C1C"/>
<rect x="64" y="128" width="30" height="30" rx="3" fill="#1C1C1C"/>
<rect x="96" y="128" width="30" height="30" rx="3" fill="#242424"/>
<rect y="160" width="30" height="30" rx="3" fill="#2B2B2B"/>
<rect x="32" y="160" width="30" height="30" rx="3" fill="#2B2B2B"/>
<rect x="64" y="160" width="30" height="30" rx="3" fill="#2B2B2B"/>
<rect x="96" y="160" width="30" height="30" rx="3" fill="#333333"/>
<rect x="128" y="128" width="30" height="30" rx="3" fill="#1C1C1C"/>
<rect x="160" y="128" width="30" height="30" rx="3" fill="#1C1C1C"/>
<rect x="192" y="128" width="30" height="30" rx="3" fill="#1C1C1C"/>
<rect x="224" y="128" width="30" height="30" rx="3" fill="#242424"/>
<rect x="128" y="160" width="30" height="30" rx="3" fill="#2B2B2B"/>
<rect x="160" y="160" width="30" height="30" rx="3" fill="#2B2B2B"/>
<rect x="192" y="160" width="30" height="30" rx="3" fill="#2B2B2B"/>
<rect x="224" y="160" width="30" height="30" rx="3" fill="#333333"/>
<rect y="192" width="30" height="30" rx="3" fill="#1C1C1C"/>
<rect x="32" y="192" width="30" height="30" rx="3" fill="#1C1C1C"/>
<rect x="64" y="192" width="30" height="30" rx="3" fill="#1C1C1C"/>
<rect x="96" y="192" width="30" height="30" rx="3" fill="#242424"/>
<rect y="224" width="30" height="30" rx="3" fill="#2B2B2B"/>
<rect x="32" y="224" width="30" height="30" rx="3" fill="#2B2B2B"/>
<rect x="64" y="224" width="30" height="30" rx="3" fill="#2B2B2B"/>
<rect x="96" y="224" width="30" height="30" rx="3" fill="#333333"/>
<rect x="128" y="192" width="30" height="30" rx="3" fill="#1C1C1C"/>
<rect x="160" y="192" width="30" height="30" rx="3" fill="#1C1C1C"/>
<rect x="192" y="192" width="30" height="30" rx="3" fill="#1C1C1C"/>
<rect x="224" y="192" width="30" height="30" rx="3" fill="#242424"/>
<rect x="128" y="224" width="30" height="30" rx="3" fill="#2B2B2B"/>
<rect x="160" y="224" width="30" height="30" rx="3" fill="#2B2B2B"/>
<rect x="192" y="224" width="30" height="30" rx="3" fill="#2B2B2B"/>
<rect x="224" y="224" width="30" height="30" rx="3" fill="#333333"/>
<rect x="256" width="30" height="30" rx="3" fill="#1C1C1C"/>
<rect x="288" width="30" height="30" rx="3" fill="#1C1C1C"/>
<rect x="320" width="30" height="30" rx="3" fill="#1C1C1C"/>
<rect x="352" width="30" height="30" rx="3" fill="#242424"/>
<rect x="256" y="32" width="30" height="30" rx="3" fill="#2B2B2B"/>
<rect x="288" y="32" width="30" height="30" rx="3" fill="#2B2B2B"/>
<rect x="320" y="32" width="30" height="30" rx="3" fill="#2B2B2B"/>
<rect x="352" y="32" width="30" height="30" rx="3" fill="#333333"/>
<rect x="384" width="30" height="30" rx="3" fill="#1C1C1C"/>
<rect x="416" width="30" height="30" rx="3" fill="#1C1C1C"/>
<rect x="448" width="30" height="30" rx="3" fill="#1C1C1C"/>
<rect x="480" width="30" height="30" rx="3" fill="#242424"/>
<rect x="384" y="32" width="30" height="30" rx="3" fill="#2B2B2B"/>
<rect x="416" y="32" width="30" height="30" rx="3" fill="#2B2B2B"/>
<rect x="448" y="32" width="30" height="30" rx="3" fill="#2B2B2B"/>
<rect x="480" y="32" width="30" height="30" rx="3" fill="#333333"/>
<rect x="256" y="64" width="30" height="30" rx="3" fill="#1C1C1C"/>
<rect x="288" y="64" width="30" height="30" rx="3" fill="#1C1C1C"/>
<rect x="320" y="64" width="30" height="30" rx="3" fill="#1C1C1C"/>
<rect x="352" y="64" width="30" height="30" rx="3" fill="#242424"/>
<rect x="256" y="96" width="30" height="30" rx="3" fill="#2B2B2B"/>
<rect x="288" y="96" width="30" height="30" rx="3" fill="#2B2B2B"/>
<rect x="320" y="96" width="30" height="30" rx="3" fill="#2B2B2B"/>
<rect x="352" y="96" width="30" height="30" rx="3" fill="#333333"/>
<rect x="384" y="64" width="30" height="30" rx="3" fill="#1C1C1C"/>
<rect x="416" y="64" width="30" height="30" rx="3" fill="#1C1C1C"/>
<rect x="448" y="64" width="30" height="30" rx="3" fill="#1C1C1C"/>
<rect x="480" y="64" width="30" height="30" rx="3" fill="#242424"/>
<rect x="384" y="96" width="30" height="30" rx="3" fill="#2B2B2B"/>
<rect x="416" y="96" width="30" height="30" rx="3" fill="#2B2B2B"/>
<rect x="448" y="96" width="30" height="30" rx="3" fill="#2B2B2B"/>
<rect x="480" y="96" width="30" height="30" rx="3" fill="#333333"/>
<rect x="256" y="128" width="30" height="30" rx="3" fill="#1C1C1C"/>
<rect x="288" y="128" width="30" height="30" rx="3" fill="#1C1C1C"/>
<rect x="320" y="128" width="30" height="30" rx="3" fill="#1C1C1C"/>
<rect x="352" y="128" width="30" height="30" rx="3" fill="#242424"/>
<rect x="256" y="160" width="30" height="30" rx="3" fill="#2B2B2B"/>
<rect x="288" y="160" width="30" height="30" rx="3" fill="#2B2B2B"/>
<rect x="320" y="160" width="30" height="30" rx="3" fill="#2B2B2B"/>
<rect x="352" y="160" width="30" height="30" rx="3" fill="#333333"/>
<rect x="384" y="128" width="30" height="30" rx="3" fill="#1C1C1C"/>
<rect x="416" y="128" width="30" height="30" rx="3" fill="#1C1C1C"/>
<rect x="448" y="128" width="30" height="30" rx="3" fill="#1C1C1C"/>
<rect x="480" y="128" width="30" height="30" rx="3" fill="#242424"/>
<rect x="384" y="160" width="30" height="30" rx="3" fill="#2B2B2B"/>
<rect x="416" y="160" width="30" height="30" rx="3" fill="#2B2B2B"/>
<rect x="448" y="160" width="30" height="30" rx="3" fill="#2B2B2B"/>
<rect x="480" y="160" width="30" height="30" rx="3" fill="#333333"/>
<rect x="256" y="192" width="30" height="30" rx="3" fill="#1C1C1C"/>
<rect x="288" y="192" width="30" height="30" rx="3" fill="#1C1C1C"/>
<rect x="320" y="192" width="30" height="30" rx="3" fill="#1C1C1C"/>
<rect x="352" y="192" width="30" height="30" rx="3" fill="#242424"/>
<rect x="256" y="224" width="30" height="30" rx="3" fill="#2B2B2B"/>
<rect x="288" y="224" width="30" height="30" rx="3" fill="#2B2B2B"/>
<rect x="320" y="224" width="30" height="30" rx="3" fill="#2B2B2B"/>
<rect x="352" y="224" width="30" height="30" rx="3" fill="#333333"/>
<rect x="384" y="192" width="30" height="30" rx="3" fill="#1C1C1C"/>
<rect x="416" y="192" width="30" height="30" rx="3" fill="#1C1C1C"/>
<rect x="448" y="192" width="30" height="30" rx="3" fill="#1C1C1C"/>
<rect x="480" y="192" width="30" height="30" rx="3" fill="#242424"/>
<rect x="384" y="224" width="30" height="30" rx="3" fill="#2B2B2B"/>
<rect x="416" y="224" width="30" height="30" rx="3" fill="#2B2B2B"/>
<rect x="448" y="224" width="30" height="30" rx="3" fill="#2B2B2B"/>
<rect x="480" y="224" width="30" height="30" rx="3" fill="#333333"/>
<rect y="256" width="30" height="30" rx="3" fill="#1C1C1C"/>
<rect x="32" y="256" width="30" height="30" rx="3" fill="#1C1C1C"/>
<rect x="64" y="256" width="30" height="30" rx="3" fill="#1C1C1C"/>
<rect x="96" y="256" width="30" height="30" rx="3" fill="#242424"/>
<rect y="288" width="30" height="30" rx="3" fill="#2B2B2B"/>
<rect x="32" y="288" width="30" height="30" rx="3" fill="#2B2B2B"/>
<rect x="64" y="288" width="30" height="30" rx="3" fill="#2B2B2B"/>
<rect x="96" y="288" width="30" height="30" rx="3" fill="#333333"/>
<rect x="128" y="256" width="30" height="30" rx="3" fill="#1C1C1C"/>
<rect x="160" y="256" width="30" height="30" rx="3" fill="#1C1C1C"/>
<rect x="192" y="256" width="30" height="30" rx="3" fill="#1C1C1C"/>
<rect x="224" y="256" width="30" height="30" rx="3" fill="#242424"/>
<rect x="128" y="288" width="30" height="30" rx="3" fill="#2B2B2B"/>
<rect x="160" y="288" width="30" height="30" rx="3" fill="#2B2B2B"/>
<rect x="192" y="288" width="30" height="30" rx="3" fill="#2B2B2B"/>
<rect x="224" y="288" width="30" height="30" rx="3" fill="#333333"/>
<rect y="320" width="30" height="30" rx="3" fill="#1C1C1C"/>
<rect x="32" y="320" width="30" height="30" rx="3" fill="#1C1C1C"/>
<rect x="64" y="320" width="30" height="30" rx="3" fill="#1C1C1C"/>
<rect x="96" y="320" width="30" height="30" rx="3" fill="#242424"/>
<rect y="352" width="30" height="30" rx="3" fill="#2B2B2B"/>
<rect x="32" y="352" width="30" height="30" rx="3" fill="#2B2B2B"/>
<rect x="64" y="352" width="30" height="30" rx="3" fill="#2B2B2B"/>
<rect x="96" y="352" width="30" height="30" rx="3" fill="#333333"/>
<rect x="128" y="320" width="30" height="30" rx="3" fill="#1C1C1C"/>
<rect x="160" y="320" width="30" height="30" rx="3" fill="#1C1C1C"/>
<rect x="192" y="320" width="30" height="30" rx="3" fill="#1C1C1C"/>
<rect x="224" y="320" width="30" height="30" rx="3" fill="#242424"/>
<rect x="128" y="352" width="30" height="30" rx="3" fill="#2B2B2B"/>
<rect x="160" y="352" width="30" height="30" rx="3" fill="#2B2B2B"/>
<rect x="192" y="352" width="30" height="30" rx="3" fill="#2B2B2B"/>
<rect x="224" y="352" width="30" height="30" rx="3" fill="#333333"/>
<rect y="384" width="30" height="30" rx="3" fill="#1C1C1C"/>
<rect x="32" y="384" width="30" height="30" rx="3" fill="#1C1C1C"/>
<rect x="64" y="384" width="30" height="30" rx="3" fill="#1C1C1C"/>
<rect x="96" y="384" width="30" height="30" rx="3" fill="#242424"/>
<rect y="416" width="30" height="30" rx="3" fill="#2B2B2B"/>
<rect x="32" y="416" width="30" height="30" rx="3" fill="#2B2B2B"/>
<rect x="64" y="416" width="30" height="30" rx="3" fill="#2B2B2B"/>
<rect x="96" y="416" width="30" height="30" rx="3" fill="#333333"/>
<rect x="128" y="384" width="30" height="30" rx="3" fill="#1C1C1C"/>
<rect x="160" y="384" width="30" height="30" rx="3" fill="#1C1C1C"/>
<rect x="192" y="384" width="30" height="30" rx="3" fill="#1C1C1C"/>
<rect x="224" y="384" width="30" height="30" rx="3" fill="#242424"/>
<rect x="128" y="416" width="30" height="30" rx="3" fill="#2B2B2B"/>
<rect x="160" y="416" width="30" height="30" rx="3" fill="#2B2B2B"/>
<rect x="192" y="416" width="30" height="30" rx="3" fill="#2B2B2B"/>
<rect x="224" y="416" width="30" height="30" rx="3" fill="#333333"/>
<rect y="448" width="30" height="30" rx="3" fill="#1C1C1C"/>
<rect x="32" y="448" width="30" height="30" rx="3" fill="#1C1C1C"/>
<rect x="64" y="448" width="30" height="30" rx="3" fill="#1C1C1C"/>
<rect x="96" y="448" width="30" height="30" rx="3" fill="#242424"/>
<rect y="480" width="30" height="30" rx="3" fill="#2B2B2B"/>
<rect x="32" y="480" width="30" height="30" rx="3" fill="#2B2B2B"/>
<rect x="64" y="480" width="30" height="30" rx="3" fill="#2B2B2B"/>
<rect x="96" y="480" width="30" height="30" rx="3" fill="#333333"/>
<rect x="128" y="448" width="30" height="30" rx="3" fill="#1C1C1C"/>
<rect x="160" y="448" width="30" height="30" rx="3" fill="#1C1C1C"/>
<rect x="192" y="448" width="30" height="30" rx="3" fill="#1C1C1C"/>
<rect x="224" y="448" width="30" height="30" rx="3" fill="#242424"/>
<rect x="128" y="480" width="30" height="30" rx="3" fill="#2B2B2B"/>
<rect x="160" y="480" width="30" height="30" rx="3" fill="#2B2B2B"/>
<rect x="192" y="480" width="30" height="30" rx="3" fill="#2B2B2B"/>
<rect x="224" y="480" width="30" height="30" rx="3" fill="#333333"/>
<rect x="256" y="256" width="30" height="30" rx="3" fill="#1C1C1C"/>
<rect x="288" y="256" width="30" height="30" rx="3" fill="#1C1C1C"/>
<rect x="320" y="256" width="30" height="30" rx="3" fill="#1C1C1C"/>
<rect x="352" y="256" width="30" height="30" rx="3" fill="#242424"/>
<rect x="256" y="288" width="30" height="30" rx="3" fill="#2B2B2B"/>
<rect x="288" y="288" width="30" height="30" rx="3" fill="#2B2B2B"/>
<rect x="320" y="288" width="30" height="30" rx="3" fill="#2B2B2B"/>
<rect x="352" y="288" width="30" height="30" rx="3" fill="#333333"/>
<rect x="384" y="256" width="30" height="30" rx="3" fill="#1C1C1C"/>
<rect x="416" y="256" width="30" height="30" rx="3" fill="#1C1C1C"/>
<rect x="448" y="256" width="30" height="30" rx="3" fill="#1C1C1C"/>
<rect x="480" y="256" width="30" height="30" rx="3" fill="#242424"/>
<rect x="384" y="288" width="30" height="30" rx="3" fill="#2B2B2B"/>
<rect x="416" y="288" width="30" height="30" rx="3" fill="#2B2B2B"/>
<rect x="448" y="288" width="30" height="30" rx="3" fill="#2B2B2B"/>
<rect x="480" y="288" width="30" height="30" rx="3" fill="#333333"/>
<rect x="256" y="320" width="30" height="30" rx="3" fill="#1C1C1C"/>
<rect x="288" y="320" width="30" height="30" rx="3" fill="#1C1C1C"/>
<rect x="320" y="320" width="30" height="30" rx="3" fill="#1C1C1C"/>
<rect x="352" y="320" width="30" height="30" rx="3" fill="#242424"/>
<rect x="256" y="352" width="30" height="30" rx="3" fill="#2B2B2B"/>
<rect x="288" y="352" width="30" height="30" rx="3" fill="#2B2B2B"/>
<rect x="320" y="352" width="30" height="30" rx="3" fill="#2B2B2B"/>
<rect x="352" y="352" width="30" height="30" rx="3" fill="#333333"/>
<rect x="384" y="320" width="30" height="30" rx="3" fill="#1C1C1C"/>
<rect x="416" y="320" width="30" height="30" rx="3" fill="#1C1C1C"/>
<rect x="448" y="320" width="30" height="30" rx="3" fill="#1C1C1C"/>
<rect x="480" y="320" width="30" height="30" rx="3" fill="#242424"/>
<rect x="384" y="352" width="30" height="30" rx="3" fill="#2B2B2B"/>
<rect x="416" y="352" width="30" height="30" rx="3" fill="#2B2B2B"/>
<rect x="448" y="352" width="30" height="30" rx="3" fill="#2B2B2B"/>
<rect x="480" y="352" width="30" height="30" rx="3" fill="#333333"/>
<rect x="256" y="384" width="30" height="30" rx="3" fill="#1C1C1C"/>
<rect x="288" y="384" width="30" height="30" rx="3" fill="#1C1C1C"/>
<rect x="320" y="384" width="30" height="30" rx="3" fill="#1C1C1C"/>
<rect x="352" y="384" width="30" height="30" rx="3" fill="#242424"/>
<rect x="256" y="416" width="30" height="30" rx="3" fill="#2B2B2B"/>
<rect x="288" y="416" width="30" height="30" rx="3" fill="#2B2B2B"/>
<rect x="320" y="416" width="30" height="30" rx="3" fill="#2B2B2B"/>
<rect x="352" y="416" width="30" height="30" rx="3" fill="#333333"/>
<rect x="384" y="384" width="30" height="30" rx="3" fill="#1C1C1C"/>
<rect x="416" y="384" width="30" height="30" rx="3" fill="#1C1C1C"/>
<rect x="448" y="384" width="30" height="30" rx="3" fill="#1C1C1C"/>
<rect x="480" y="384" width="30" height="30" rx="3" fill="#242424"/>
<rect x="384" y="416" width="30" height="30" rx="3" fill="#2B2B2B"/>
<rect x="416" y="416" width="30" height="30" rx="3" fill="#2B2B2B"/>
<rect x="448" y="416" width="30" height="30" rx="3" fill="#2B2B2B"/>
<rect x="480" y="416" width="30" height="30" rx="3" fill="#333333"/>
<rect x="256" y="448" width="30" height="30" rx="3" fill="#1C1C1C"/>
<rect x="288" y="448" width="30" height="30" rx="3" fill="#1C1C1C"/>
<rect x="320" y="448" width="30" height="30" rx="3" fill="#1C1C1C"/>
<rect x="352" y="448" width="30" height="30" rx="3" fill="#242424"/>
<rect x="256" y="480" width="30" height="30" rx="3" fill="#2B2B2B"/>
<rect x="288" y="480" width="30" height="30" rx="3" fill="#2B2B2B"/>
<rect x="320" y="480" width="30" height="30" rx="3" fill="#2B2B2B"/>
<rect x="352" y="480" width="30" height="30" rx="3" fill="#333333"/>
<rect x="384" y="448" width="30" height="30" rx="3" fill="#1C1C1C"/>
<rect x="416" y="448" width="30" height="30" rx="3" fill="#1C1C1C"/>
<rect x="448" y="448" width="30" height="30" rx="3" fill="#1C1C1C"/>
<rect x="480" y="448" width="30" height="30" rx="3" fill="#242424"/>
<rect x="384" y="480" width="30" height="30" rx="3" fill="#2B2B2B"/>
<rect x="416" y="480" width="30" height="30" rx="3" fill="#2B2B2B"/>
<rect x="448" y="480" width="30" height="30" rx="3" fill="#2B2B2B"/>
<rect x="480" y="480" width="30" height="30" rx="3" fill="#333333"/>
<rect y="319" width="190" height="32" rx="3" fill="#94741D"/>
<rect y="319" width="31" height="32" rx="3" fill="#A88831"/>
<rect x="191" y="319" width="319" height="32" rx="3" fill="#94741D"/>
<rect x="191" y="319" width="31" height="32" rx="3" fill="#A88831"/>
<rect x="511" y="319" width="191" height="32" rx="3" fill="#94741D"/>
<rect x="511" y="319" width="31" height="32" rx="3" fill="#A88831"/>
<rect x="703" y="319" width="319" height="32" rx="3" fill="#94741D"/>
<rect x="703" y="319" width="32" height="32" rx="3" fill="#A88831"/>
<rect y="479" width="190" height="32" rx="3" fill="#94741D"/>
<rect y="479" width="31" height="32" rx="3" fill="#A88831"/>
<rect x="191" y="479" width="319" height="32" rx="3" fill="#94741D"/>
<rect x="191" y="479" width="31" height="32" rx="3" fill="#A88831"/>
<rect x="511" y="479" width="191" height="32" rx="3" fill="#94741D"/>
<rect x="511" y="479" width="31" height="32" rx="3" fill="#A88831"/>
<rect x="703" y="479" width="319" height="32" rx="3" fill="#94741D"/>
<rect x="703" y="479" width="32" height="32" rx="3" fill="#A88831"/>
<rect y="223" width="191" height="32" rx="3" fill="#94741D"/>
<rect y="223" width="31" height="32" rx="3" fill="#A88831"/>
<rect x="191" y="255" width="320" height="32" rx="3" fill="#94741D"/>
<rect x="191" y="255" width="32" height="32" rx="3" fill="#A88831"/>
<rect x="511" y="223" width="191" height="32" rx="3" fill="#94741D"/>
<rect x="511" y="223" width="32" height="32" rx="3" fill="#A88831"/>
<rect x="703" y="255" width="319" height="32" rx="3" fill="#94741D"/>
<rect x="703" y="255" width="32" height="32" rx="3" fill="#A88831"/>
</svg>
