<svg width="514" height="313" viewBox="0 0 514 313" fill="none" xmlns="http://www.w3.org/2000/svg">
<g clip-path="url(#clip0_523_73)">
<rect width="514" height="313" rx="6" fill="#222222"/>
<rect x="154.706" y="53.515" width="212.113" height="210.168" rx="6" fill="#292929"/>
<path d="M198.005 209.727V225H195.887L188.124 213.799H187.982V225H185.678V209.727H187.811L195.581 220.943H195.723V209.727H198.005ZM205.704 225.231C204.576 225.231 203.604 224.99 202.788 224.508C201.978 224.021 201.352 223.337 200.909 222.457C200.472 221.572 200.253 220.536 200.253 219.347C200.253 218.174 200.472 217.14 200.909 216.245C201.352 215.35 201.968 214.652 202.759 214.15C203.554 213.647 204.484 213.396 205.548 213.396C206.194 213.396 206.82 213.503 207.427 213.717C208.033 213.931 208.578 214.266 209.06 214.724C209.542 215.181 209.923 215.775 210.201 216.506C210.479 217.232 210.619 218.114 210.619 219.153V219.944H201.513V218.273H208.434C208.434 217.687 208.314 217.167 208.076 216.715C207.837 216.257 207.501 215.897 207.069 215.634C206.641 215.37 206.139 215.238 205.563 215.238C204.936 215.238 204.389 215.392 203.922 215.701C203.46 216.004 203.102 216.402 202.848 216.894C202.599 217.381 202.475 217.911 202.475 218.482V219.787C202.475 220.553 202.609 221.204 202.878 221.741C203.151 222.278 203.532 222.688 204.019 222.972C204.506 223.25 205.075 223.389 205.727 223.389C206.149 223.389 206.534 223.33 206.882 223.21C207.23 223.086 207.531 222.902 207.785 222.658C208.038 222.415 208.232 222.114 208.366 221.756L210.477 222.136C210.308 222.758 210.005 223.302 209.567 223.77C209.135 224.232 208.59 224.592 207.934 224.851C207.283 225.104 206.539 225.231 205.704 225.231ZM215.135 225L211.765 213.545H214.069L216.314 221.957H216.426L218.678 213.545H220.982L223.219 221.92H223.331L225.561 213.545H227.865L224.502 225H222.227L219.901 216.73H219.729L217.402 225H215.135ZM243.208 213.739C243.128 213.033 242.8 212.487 242.223 212.099C241.647 211.706 240.921 211.51 240.046 211.51C239.419 211.51 238.877 211.609 238.42 211.808C237.963 212.002 237.607 212.27 237.354 212.613C237.105 212.951 236.981 213.337 236.981 213.769C236.981 214.132 237.065 214.445 237.234 214.709C237.408 214.972 237.635 215.194 237.913 215.373C238.196 215.547 238.5 215.693 238.823 215.812C239.146 215.927 239.457 216.021 239.755 216.096L241.246 216.484C241.734 216.603 242.233 216.765 242.745 216.968C243.257 217.172 243.732 217.441 244.17 217.774C244.607 218.107 244.96 218.52 245.229 219.012C245.502 219.504 245.639 220.093 245.639 220.779C245.639 221.644 245.415 222.412 244.968 223.083C244.525 223.755 243.881 224.284 243.036 224.672C242.196 225.06 241.179 225.254 239.986 225.254C238.843 225.254 237.853 225.072 237.018 224.709C236.183 224.346 235.529 223.832 235.057 223.165C234.584 222.494 234.323 221.699 234.274 220.779H236.586C236.63 221.331 236.809 221.791 237.122 222.159C237.441 222.522 237.846 222.793 238.338 222.972C238.835 223.146 239.38 223.233 239.971 223.233C240.622 223.233 241.202 223.131 241.709 222.927C242.221 222.718 242.624 222.43 242.917 222.062C243.21 221.689 243.357 221.254 243.357 220.757C243.357 220.304 243.228 219.934 242.969 219.646C242.716 219.357 242.37 219.119 241.932 218.93C241.5 218.741 241.01 218.574 240.463 218.43L238.659 217.938C237.436 217.605 236.466 217.115 235.75 216.469C235.039 215.822 234.684 214.967 234.684 213.903C234.684 213.023 234.923 212.255 235.4 211.599C235.877 210.943 236.523 210.433 237.339 210.07C238.154 209.702 239.074 209.518 240.098 209.518C241.132 209.518 242.044 209.7 242.835 210.063C243.63 210.426 244.257 210.925 244.714 211.562C245.171 212.193 245.41 212.919 245.43 213.739H243.208ZM249.203 229.295C248.87 229.295 248.567 229.268 248.293 229.213C248.02 229.164 247.816 229.109 247.682 229.049L248.219 227.222C248.626 227.332 248.989 227.379 249.307 227.364C249.625 227.349 249.906 227.23 250.15 227.006C250.399 226.782 250.617 226.417 250.806 225.91L251.082 225.149L246.891 213.545H249.277L252.178 222.435H252.298L255.199 213.545H257.592L252.872 226.529C252.653 227.125 252.375 227.63 252.037 228.043C251.699 228.46 251.296 228.773 250.829 228.982C250.361 229.191 249.819 229.295 249.203 229.295ZM259.268 225V213.545H261.408V215.41H261.55C261.789 214.778 262.179 214.286 262.721 213.933C263.263 213.575 263.911 213.396 264.667 213.396C265.433 213.396 266.074 213.575 266.591 213.933C267.113 214.291 267.498 214.783 267.747 215.41H267.866C268.14 214.798 268.575 214.311 269.171 213.948C269.768 213.58 270.479 213.396 271.304 213.396C272.343 213.396 273.191 213.722 273.847 214.373C274.508 215.025 274.839 216.006 274.839 217.319V225H272.609V217.528C272.609 216.752 272.398 216.19 271.975 215.842C271.553 215.494 271.048 215.32 270.462 215.32C269.736 215.32 269.171 215.544 268.769 215.991C268.366 216.434 268.165 217.003 268.165 217.699V225H265.942V217.386C265.942 216.765 265.748 216.265 265.361 215.887C264.973 215.509 264.468 215.32 263.847 215.32C263.424 215.32 263.034 215.432 262.676 215.656C262.323 215.875 262.037 216.18 261.818 216.573C261.605 216.966 261.498 217.421 261.498 217.938V225H259.268ZM277.408 229.295V213.545H279.585V215.402H279.772C279.901 215.164 280.087 214.888 280.331 214.575C280.574 214.261 280.913 213.988 281.345 213.754C281.778 213.516 282.349 213.396 283.06 213.396C283.985 213.396 284.81 213.63 285.536 214.097C286.262 214.565 286.831 215.238 287.244 216.118C287.661 216.998 287.87 218.057 287.87 219.295C287.87 220.533 287.664 221.594 287.251 222.479C286.839 223.359 286.272 224.038 285.551 224.515C284.83 224.988 284.007 225.224 283.083 225.224C282.387 225.224 281.817 225.107 281.375 224.873C280.937 224.64 280.594 224.366 280.346 224.053C280.097 223.74 279.906 223.461 279.772 223.218H279.637V229.295H277.408ZM279.593 219.273C279.593 220.078 279.709 220.784 279.943 221.391C280.177 221.997 280.515 222.472 280.957 222.815C281.4 223.153 281.942 223.322 282.583 223.322C283.249 223.322 283.806 223.146 284.253 222.793C284.701 222.435 285.039 221.95 285.268 221.338C285.501 220.727 285.618 220.038 285.618 219.273C285.618 218.517 285.504 217.838 285.275 217.237C285.051 216.635 284.713 216.161 284.261 215.812C283.813 215.464 283.254 215.29 282.583 215.29C281.937 215.29 281.39 215.457 280.942 215.79C280.5 216.123 280.164 216.588 279.936 217.185C279.707 217.781 279.593 218.477 279.593 219.273ZM292.178 218.199V225H289.949V209.727H292.148V215.41H292.29C292.559 214.793 292.969 214.304 293.521 213.941C294.072 213.578 294.793 213.396 295.683 213.396C296.469 213.396 297.155 213.558 297.741 213.881C298.333 214.204 298.79 214.686 299.114 215.328C299.442 215.964 299.606 216.76 299.606 217.714V225H297.376V217.983C297.376 217.142 297.16 216.491 296.727 216.029C296.295 215.561 295.693 215.328 294.923 215.328C294.396 215.328 293.923 215.44 293.506 215.663C293.093 215.887 292.767 216.215 292.529 216.648C292.295 217.075 292.178 217.592 292.178 218.199ZM306.986 225.231C305.912 225.231 304.975 224.985 304.175 224.493C303.374 224.001 302.753 223.312 302.31 222.427C301.868 221.542 301.647 220.508 301.647 219.325C301.647 218.137 301.868 217.098 302.31 216.208C302.753 215.318 303.374 214.627 304.175 214.135C304.975 213.642 305.912 213.396 306.986 213.396C308.06 213.396 308.997 213.642 309.798 214.135C310.598 214.627 311.22 215.318 311.662 216.208C312.105 217.098 312.326 218.137 312.326 219.325C312.326 220.508 312.105 221.542 311.662 222.427C311.22 223.312 310.598 224.001 309.798 224.493C308.997 224.985 308.06 225.231 306.986 225.231ZM306.994 223.359C307.69 223.359 308.266 223.175 308.724 222.808C309.181 222.44 309.519 221.95 309.738 221.338C309.962 220.727 310.074 220.053 310.074 219.317C310.074 218.587 309.962 217.915 309.738 217.304C309.519 216.687 309.181 216.193 308.724 215.82C308.266 215.447 307.69 215.261 306.994 215.261C306.293 215.261 305.711 215.447 305.249 215.82C304.791 216.193 304.451 216.687 304.227 217.304C304.008 217.915 303.899 218.587 303.899 219.317C303.899 220.053 304.008 220.727 304.227 221.338C304.451 221.95 304.791 222.44 305.249 222.808C305.711 223.175 306.293 223.359 306.994 223.359ZM316.624 218.199V225H314.395V213.545H316.535V215.41H316.677C316.94 214.803 317.353 214.316 317.915 213.948C318.481 213.58 319.195 213.396 320.055 213.396C320.835 213.396 321.519 213.56 322.106 213.888C322.692 214.212 323.147 214.694 323.47 215.335C323.793 215.977 323.955 216.77 323.955 217.714V225H321.725V217.983C321.725 217.152 321.509 216.504 321.076 216.036C320.644 215.564 320.05 215.328 319.294 215.328C318.777 215.328 318.317 215.44 317.915 215.663C317.517 215.887 317.201 216.215 316.967 216.648C316.739 217.075 316.624 217.592 316.624 218.199ZM327.525 229.295C327.192 229.295 326.888 229.268 326.615 229.213C326.341 229.164 326.138 229.109 326.003 229.049L326.54 227.222C326.948 227.332 327.311 227.379 327.629 227.364C327.947 227.349 328.228 227.23 328.472 227.006C328.72 226.782 328.939 226.417 329.128 225.91L329.404 225.149L325.213 213.545H327.599L330.5 222.435H330.62L333.52 213.545H335.914L331.194 226.529C330.975 227.125 330.697 227.63 330.359 228.043C330.02 228.46 329.618 228.773 329.15 228.982C328.683 229.191 328.141 229.295 327.525 229.295Z" fill="#737373"/>
<path d="M458.639 229V213.727H468.214V215.711H460.943V220.364H467.714V222.341H460.943V227.016H468.303V229H458.639ZM470.693 233.295V217.545H472.87V219.402H473.057C473.186 219.164 473.373 218.888 473.616 218.575C473.86 218.261 474.198 217.988 474.63 217.754C475.063 217.516 475.635 217.396 476.346 217.396C477.27 217.396 478.096 217.63 478.821 218.097C479.547 218.565 480.117 219.238 480.529 220.118C480.947 220.998 481.156 222.057 481.156 223.295C481.156 224.533 480.949 225.594 480.537 226.479C480.124 227.359 479.557 228.038 478.836 228.515C478.115 228.988 477.293 229.224 476.368 229.224C475.672 229.224 475.103 229.107 474.66 228.873C474.223 228.64 473.88 228.366 473.631 228.053C473.382 227.74 473.191 227.461 473.057 227.218H472.923V233.295H470.693ZM472.878 223.273C472.878 224.078 472.995 224.784 473.228 225.391C473.462 225.997 473.8 226.472 474.243 226.815C474.685 227.153 475.227 227.322 475.868 227.322C476.534 227.322 477.091 227.146 477.539 226.793C477.986 226.435 478.324 225.95 478.553 225.338C478.787 224.727 478.903 224.038 478.903 223.273C478.903 222.517 478.789 221.838 478.56 221.237C478.337 220.635 477.999 220.161 477.546 219.812C477.099 219.464 476.539 219.29 475.868 219.29C475.222 219.29 474.675 219.457 474.228 219.79C473.785 220.123 473.45 220.588 473.221 221.185C472.992 221.781 472.878 222.477 472.878 223.273ZM483.234 229V217.545H485.464V229H483.234ZM484.36 215.778C483.972 215.778 483.639 215.649 483.361 215.39C483.087 215.127 482.95 214.814 482.95 214.451C482.95 214.083 483.087 213.77 483.361 213.511C483.639 213.248 483.972 213.116 484.36 213.116C484.748 213.116 485.078 213.248 485.352 213.511C485.63 213.77 485.769 214.083 485.769 214.451C485.769 214.814 485.63 215.127 485.352 215.39C485.078 215.649 484.748 215.778 484.36 215.778ZM492.868 229.231C491.76 229.231 490.805 228.98 490.005 228.478C489.209 227.971 488.598 227.272 488.17 226.382C487.743 225.493 487.529 224.473 487.529 223.325C487.529 222.162 487.747 221.135 488.185 220.245C488.622 219.35 489.239 218.652 490.034 218.15C490.83 217.647 491.767 217.396 492.846 217.396C493.716 217.396 494.491 217.558 495.173 217.881C495.854 218.199 496.403 218.647 496.821 219.223C497.243 219.8 497.494 220.474 497.574 221.244H495.404C495.284 220.707 495.011 220.245 494.583 219.857C494.161 219.469 493.594 219.276 492.883 219.276C492.262 219.276 491.717 219.44 491.25 219.768C490.788 220.091 490.427 220.553 490.169 221.155C489.91 221.751 489.781 222.457 489.781 223.273C489.781 224.108 489.908 224.829 490.161 225.435C490.415 226.042 490.773 226.512 491.235 226.845C491.702 227.178 492.252 227.344 492.883 227.344C493.306 227.344 493.689 227.267 494.032 227.113C494.38 226.954 494.67 226.728 494.904 226.435C495.143 226.141 495.309 225.788 495.404 225.376H497.574C497.494 226.116 497.253 226.778 496.85 227.359C496.448 227.941 495.908 228.398 495.232 228.732C494.561 229.065 493.773 229.231 492.868 229.231ZM416.54 243.694H414.213C414.124 243.197 413.957 242.759 413.714 242.381C413.47 242.004 413.172 241.683 412.819 241.419C412.466 241.156 412.071 240.957 411.633 240.823C411.201 240.689 410.741 240.621 410.254 240.621C409.374 240.621 408.586 240.843 407.89 241.285C407.199 241.728 406.652 242.376 406.249 243.232C405.851 244.087 405.652 245.131 405.652 246.364C405.652 247.607 405.851 248.656 406.249 249.511C406.652 250.366 407.201 251.012 407.897 251.45C408.593 251.887 409.376 252.106 410.246 252.106C410.728 252.106 411.186 252.041 411.618 251.912C412.056 251.778 412.451 251.581 412.804 251.323C413.157 251.064 413.455 250.749 413.699 250.376C413.948 249.998 414.119 249.565 414.213 249.078L416.54 249.086C416.416 249.836 416.175 250.527 415.817 251.159C415.464 251.785 415.009 252.327 414.452 252.784C413.9 253.237 413.269 253.587 412.558 253.836C411.847 254.085 411.071 254.209 410.231 254.209C408.909 254.209 407.731 253.896 406.696 253.269C405.662 252.638 404.847 251.735 404.25 250.562C403.659 249.389 403.363 247.989 403.363 246.364C403.363 244.733 403.661 243.333 404.258 242.165C404.854 240.992 405.67 240.092 406.704 239.466C407.738 238.834 408.914 238.518 410.231 238.518C411.042 238.518 411.797 238.635 412.498 238.869C413.204 239.098 413.838 239.436 414.4 239.883C414.962 240.326 415.427 240.868 415.794 241.509C416.162 242.145 416.411 242.874 416.54 243.694ZM423.524 254.231C422.45 254.231 421.513 253.985 420.712 253.493C419.912 253.001 419.29 252.312 418.848 251.427C418.405 250.542 418.184 249.508 418.184 248.325C418.184 247.137 418.405 246.098 418.848 245.208C419.29 244.318 419.912 243.627 420.712 243.135C421.513 242.642 422.45 242.396 423.524 242.396C424.597 242.396 425.535 242.642 426.335 243.135C427.135 243.627 427.757 244.318 428.199 245.208C428.642 246.098 428.863 247.137 428.863 248.325C428.863 249.508 428.642 250.542 428.199 251.427C427.757 252.312 427.135 253.001 426.335 253.493C425.535 253.985 424.597 254.231 423.524 254.231ZM423.531 252.359C424.227 252.359 424.804 252.175 425.261 251.808C425.718 251.44 426.057 250.95 426.275 250.338C426.499 249.727 426.611 249.053 426.611 248.317C426.611 247.587 426.499 246.915 426.275 246.304C426.057 245.687 425.718 245.193 425.261 244.82C424.804 244.447 424.227 244.261 423.531 244.261C422.83 244.261 422.248 244.447 421.786 244.82C421.329 245.193 420.988 245.687 420.764 246.304C420.546 246.915 420.436 247.587 420.436 248.317C420.436 249.053 420.546 249.727 420.764 250.338C420.988 250.95 421.329 251.44 421.786 251.808C422.248 252.175 422.83 252.359 423.531 252.359ZM430.932 254V242.545H433.072V244.41H433.214C433.453 243.778 433.843 243.286 434.385 242.933C434.927 242.575 435.575 242.396 436.331 242.396C437.097 242.396 437.738 242.575 438.255 242.933C438.777 243.291 439.162 243.783 439.411 244.41H439.53C439.804 243.798 440.239 243.311 440.835 242.948C441.432 242.58 442.143 242.396 442.968 242.396C444.007 242.396 444.855 242.722 445.511 243.373C446.172 244.025 446.503 245.006 446.503 246.319V254H444.273V246.528C444.273 245.752 444.062 245.19 443.639 244.842C443.217 244.494 442.712 244.32 442.125 244.32C441.4 244.32 440.835 244.544 440.433 244.991C440.03 245.434 439.829 246.003 439.829 246.699V254H437.606V246.386C437.606 245.765 437.412 245.265 437.025 244.887C436.637 244.509 436.132 244.32 435.511 244.32C435.088 244.32 434.698 244.432 434.34 244.656C433.987 244.875 433.701 245.18 433.482 245.573C433.269 245.966 433.162 246.421 433.162 246.938V254H430.932ZM449.071 258.295V242.545H451.249V244.402H451.435C451.565 244.164 451.751 243.888 451.995 243.575C452.238 243.261 452.576 242.988 453.009 242.754C453.442 242.516 454.013 242.396 454.724 242.396C455.649 242.396 456.474 242.63 457.2 243.097C457.926 243.565 458.495 244.238 458.908 245.118C459.325 245.998 459.534 247.057 459.534 248.295C459.534 249.533 459.328 250.594 458.915 251.479C458.503 252.359 457.936 253.038 457.215 253.515C456.494 253.988 455.671 254.224 454.747 254.224C454.051 254.224 453.481 254.107 453.039 253.873C452.601 253.64 452.258 253.366 452.01 253.053C451.761 252.74 451.57 252.461 451.435 252.218H451.301V258.295H449.071ZM451.256 248.273C451.256 249.078 451.373 249.784 451.607 250.391C451.841 250.997 452.179 251.472 452.621 251.815C453.064 252.153 453.606 252.322 454.247 252.322C454.913 252.322 455.47 252.146 455.917 251.793C456.365 251.435 456.703 250.95 456.932 250.338C457.165 249.727 457.282 249.038 457.282 248.273C457.282 247.517 457.168 246.838 456.939 246.237C456.715 245.635 456.377 245.161 455.925 244.812C455.477 244.464 454.918 244.29 454.247 244.29C453.601 244.29 453.054 244.457 452.606 244.79C452.164 245.123 451.828 245.588 451.6 246.185C451.371 246.781 451.256 247.477 451.256 248.273ZM466.437 254.231C465.363 254.231 464.426 253.985 463.626 253.493C462.825 253.001 462.204 252.312 461.762 251.427C461.319 250.542 461.098 249.508 461.098 248.325C461.098 247.137 461.319 246.098 461.762 245.208C462.204 244.318 462.825 243.627 463.626 243.135C464.426 242.642 465.363 242.396 466.437 242.396C467.511 242.396 468.448 242.642 469.249 243.135C470.049 243.627 470.671 244.318 471.113 245.208C471.556 246.098 471.777 247.137 471.777 248.325C471.777 249.508 471.556 250.542 471.113 251.427C470.671 252.312 470.049 253.001 469.249 253.493C468.448 253.985 467.511 254.231 466.437 254.231ZM466.445 252.359C467.141 252.359 467.718 252.175 468.175 251.808C468.632 251.44 468.97 250.95 469.189 250.338C469.413 249.727 469.525 249.053 469.525 248.317C469.525 247.587 469.413 246.915 469.189 246.304C468.97 245.687 468.632 245.193 468.175 244.82C467.718 244.447 467.141 244.261 466.445 244.261C465.744 244.261 465.162 244.447 464.7 244.82C464.242 245.193 463.902 245.687 463.678 246.304C463.459 246.915 463.35 247.587 463.35 248.317C463.35 249.053 463.459 249.727 463.678 250.338C463.902 250.95 464.242 251.44 464.7 251.808C465.162 252.175 465.744 252.359 466.445 252.359ZM482.429 245.342L480.408 245.7C480.324 245.441 480.189 245.195 480.006 244.962C479.827 244.728 479.583 244.537 479.275 244.387C478.966 244.238 478.581 244.164 478.119 244.164C477.487 244.164 476.96 244.305 476.538 244.589C476.115 244.867 475.904 245.228 475.904 245.67C475.904 246.053 476.046 246.361 476.329 246.595C476.612 246.828 477.07 247.02 477.701 247.169L479.521 247.587C480.575 247.83 481.36 248.206 481.877 248.713C482.394 249.22 482.653 249.879 482.653 250.689C482.653 251.375 482.454 251.987 482.056 252.523C481.664 253.055 481.114 253.473 480.408 253.776C479.707 254.08 478.894 254.231 477.97 254.231C476.687 254.231 475.64 253.958 474.83 253.411C474.02 252.859 473.523 252.076 473.339 251.062L475.494 250.734C475.628 251.295 475.904 251.721 476.322 252.009C476.739 252.292 477.284 252.434 477.955 252.434C478.686 252.434 479.27 252.282 479.707 251.979C480.145 251.671 480.363 251.295 480.363 250.853C480.363 250.495 480.229 250.194 479.961 249.951C479.697 249.707 479.292 249.523 478.745 249.399L476.806 248.974C475.737 248.73 474.947 248.342 474.435 247.81C473.928 247.278 473.674 246.605 473.674 245.789C473.674 245.113 473.863 244.522 474.241 244.015C474.619 243.507 475.141 243.112 475.807 242.829C476.473 242.54 477.236 242.396 478.096 242.396C479.334 242.396 480.309 242.665 481.02 243.202C481.731 243.734 482.2 244.447 482.429 245.342ZM484.685 254V242.545H486.914V254H484.685ZM485.811 240.778C485.423 240.778 485.09 240.649 484.811 240.39C484.538 240.127 484.401 239.814 484.401 239.451C484.401 239.083 484.538 238.77 484.811 238.511C485.09 238.248 485.423 238.116 485.811 238.116C486.198 238.116 486.529 238.248 486.802 238.511C487.081 238.77 487.22 239.083 487.22 239.451C487.22 239.814 487.081 240.127 486.802 240.39C486.529 240.649 486.198 240.778 485.811 240.778ZM494.841 242.545V244.335H488.584V242.545H494.841ZM490.262 239.801H492.492V250.637C492.492 251.069 492.557 251.395 492.686 251.614C492.815 251.827 492.982 251.974 493.185 252.054C493.394 252.128 493.62 252.165 493.864 252.165C494.043 252.165 494.2 252.153 494.334 252.128C494.468 252.103 494.572 252.083 494.647 252.069L495.05 253.911C494.921 253.96 494.737 254.01 494.498 254.06C494.259 254.114 493.961 254.144 493.603 254.149C493.016 254.159 492.47 254.055 491.962 253.836C491.455 253.617 491.045 253.279 490.732 252.822C490.419 252.364 490.262 251.79 490.262 251.099V239.801ZM496.887 254V242.545H499.117V254H496.887ZM498.014 240.778C497.626 240.778 497.293 240.649 497.014 240.39C496.741 240.127 496.604 239.814 496.604 239.451C496.604 239.083 496.741 238.77 497.014 238.511C497.293 238.248 497.626 238.116 498.014 238.116C498.401 238.116 498.732 238.248 499.005 238.511C499.284 238.77 499.423 239.083 499.423 239.451C499.423 239.814 499.284 240.127 499.005 240.39C498.732 240.649 498.401 240.778 498.014 240.778ZM506.522 254.231C505.448 254.231 504.511 253.985 503.71 253.493C502.91 253.001 502.289 252.312 501.846 251.427C501.404 250.542 501.182 249.508 501.182 248.325C501.182 247.137 501.404 246.098 501.846 245.208C502.289 244.318 502.91 243.627 503.71 243.135C504.511 242.642 505.448 242.396 506.522 242.396C507.596 242.396 508.533 242.642 509.333 243.135C510.134 243.627 510.755 244.318 511.198 245.208C511.64 246.098 511.861 247.137 511.861 248.325C511.861 249.508 511.64 250.542 511.198 251.427C510.755 252.312 510.134 253.001 509.333 253.493C508.533 253.985 507.596 254.231 506.522 254.231ZM506.529 252.359C507.225 252.359 507.802 252.175 508.259 251.808C508.717 251.44 509.055 250.95 509.274 250.338C509.497 249.727 509.609 249.053 509.609 248.317C509.609 247.587 509.497 246.915 509.274 246.304C509.055 245.687 508.717 245.193 508.259 244.82C507.802 244.447 507.225 244.261 506.529 244.261C505.828 244.261 505.247 244.447 504.784 244.82C504.327 245.193 503.986 245.687 503.763 246.304C503.544 246.915 503.435 247.587 503.435 248.317C503.435 249.053 503.544 249.727 503.763 250.338C503.986 250.95 504.327 251.44 504.784 251.808C505.247 252.175 505.828 252.359 506.529 252.359ZM516.16 247.199V254H513.93V242.545H516.071V244.41H516.212C516.476 243.803 516.888 243.316 517.45 242.948C518.017 242.58 518.73 242.396 519.59 242.396C520.371 242.396 521.055 242.56 521.641 242.888C522.228 243.212 522.683 243.694 523.006 244.335C523.329 244.977 523.491 245.77 523.491 246.714V254H521.261V246.983C521.261 246.152 521.045 245.504 520.612 245.036C520.18 244.564 519.585 244.328 518.83 244.328C518.313 244.328 517.853 244.44 517.45 244.663C517.052 244.887 516.737 245.215 516.503 245.648C516.274 246.075 516.16 246.592 516.16 247.199ZM527.53 254.142C527.123 254.142 526.772 253.998 526.479 253.709C526.185 253.416 526.039 253.063 526.039 252.65C526.039 252.243 526.185 251.895 526.479 251.606C526.772 251.313 527.123 251.166 527.53 251.166C527.938 251.166 528.288 251.313 528.582 251.606C528.875 251.895 529.022 252.243 529.022 252.65C529.022 252.924 528.952 253.175 528.813 253.403C528.679 253.627 528.5 253.806 528.276 253.94C528.052 254.075 527.804 254.142 527.53 254.142ZM540.172 245.342L538.151 245.7C538.066 245.441 537.932 245.195 537.748 244.962C537.569 244.728 537.326 244.537 537.017 244.387C536.709 244.238 536.324 244.164 535.861 244.164C535.23 244.164 534.703 244.305 534.28 244.589C533.858 244.867 533.647 245.228 533.647 245.67C533.647 246.053 533.788 246.361 534.072 246.595C534.355 246.828 534.812 247.02 535.444 247.169L537.263 247.587C538.317 247.83 539.103 248.206 539.62 248.713C540.137 249.22 540.396 249.879 540.396 250.689C540.396 251.375 540.197 251.987 539.799 252.523C539.406 253.055 538.857 253.473 538.151 253.776C537.45 254.08 536.637 254.231 535.712 254.231C534.43 254.231 533.383 253.958 532.573 253.411C531.762 252.859 531.265 252.076 531.081 251.062L533.236 250.734C533.371 251.295 533.647 251.721 534.064 252.009C534.482 252.292 535.026 252.434 535.697 252.434C536.428 252.434 537.012 252.282 537.45 251.979C537.887 251.671 538.106 251.295 538.106 250.853C538.106 250.495 537.972 250.194 537.703 249.951C537.44 249.707 537.035 249.523 536.488 249.399L534.549 248.974C533.48 248.73 532.69 248.342 532.177 247.81C531.67 247.278 531.417 246.605 531.417 245.789C531.417 245.113 531.606 244.522 531.984 244.015C532.361 243.507 532.883 243.112 533.55 242.829C534.216 242.54 534.979 242.396 535.839 242.396C537.077 242.396 538.051 242.665 538.762 243.202C539.473 243.734 539.943 244.447 540.172 245.342ZM543.837 258.295C543.503 258.295 543.2 258.268 542.927 258.213C542.653 258.164 542.449 258.109 542.315 258.049L542.852 256.222C543.26 256.332 543.623 256.379 543.941 256.364C544.259 256.349 544.54 256.23 544.784 256.006C545.032 255.782 545.251 255.417 545.44 254.91L545.716 254.149L541.525 242.545H543.911L546.812 251.435H546.931L549.832 242.545H552.226L547.506 255.529C547.287 256.125 547.008 256.63 546.67 257.043C546.332 257.46 545.93 257.773 545.462 257.982C544.995 258.191 544.453 258.295 543.837 258.295ZM439.628 279V267.545H441.768V269.41H441.91C442.149 268.778 442.539 268.286 443.081 267.933C443.623 267.575 444.272 267.396 445.027 267.396C445.793 267.396 446.434 267.575 446.951 267.933C447.473 268.291 447.859 268.783 448.107 269.41H448.226C448.5 268.798 448.935 268.311 449.531 267.948C450.128 267.58 450.839 267.396 451.664 267.396C452.703 267.396 453.551 267.722 454.207 268.373C454.868 269.025 455.199 270.006 455.199 271.319V279H452.969V271.528C452.969 270.752 452.758 270.19 452.335 269.842C451.913 269.494 451.408 269.32 450.822 269.32C450.096 269.32 449.531 269.544 449.129 269.991C448.726 270.434 448.525 271.003 448.525 271.699V279H446.302V271.386C446.302 270.765 446.109 270.265 445.721 269.887C445.333 269.509 444.828 269.32 444.207 269.32C443.784 269.32 443.394 269.432 443.036 269.656C442.683 269.875 442.397 270.18 442.178 270.573C441.965 270.966 441.858 271.421 441.858 271.938V279H439.628ZM457.768 283.295V267.545H459.945V269.402H460.132C460.261 269.164 460.447 268.888 460.691 268.575C460.935 268.261 461.273 267.988 461.705 267.754C462.138 267.516 462.709 267.396 463.42 267.396C464.345 267.396 465.17 267.63 465.896 268.097C466.622 268.565 467.191 269.238 467.604 270.118C468.022 270.998 468.23 272.057 468.23 273.295C468.23 274.533 468.024 275.594 467.611 276.479C467.199 277.359 466.632 278.038 465.911 278.515C465.19 278.988 464.367 279.224 463.443 279.224C462.747 279.224 462.177 279.107 461.735 278.873C461.297 278.64 460.954 278.366 460.706 278.053C460.457 277.74 460.266 277.461 460.132 277.218H459.997V283.295H457.768ZM459.953 273.273C459.953 274.078 460.069 274.784 460.303 275.391C460.537 275.997 460.875 276.472 461.317 276.815C461.76 277.153 462.302 277.322 462.943 277.322C463.609 277.322 464.166 277.146 464.613 276.793C465.061 276.435 465.399 275.95 465.628 275.338C465.861 274.727 465.978 274.038 465.978 273.273C465.978 272.517 465.864 271.838 465.635 271.237C465.411 270.635 465.073 270.161 464.621 269.812C464.173 269.464 463.614 269.29 462.943 269.29C462.297 269.29 461.75 269.457 461.302 269.79C460.86 270.123 460.524 270.588 460.296 271.185C460.067 271.781 459.953 272.477 459.953 273.273ZM472.538 272.199V279H470.309V263.727H472.508V269.41H472.65C472.919 268.793 473.329 268.304 473.881 267.941C474.432 267.578 475.153 267.396 476.043 267.396C476.829 267.396 477.515 267.558 478.102 267.881C478.693 268.204 479.151 268.686 479.474 269.328C479.802 269.964 479.966 270.76 479.966 271.714V279H477.736V271.983C477.736 271.142 477.52 270.491 477.087 270.029C476.655 269.561 476.053 269.328 475.283 269.328C474.756 269.328 474.283 269.44 473.866 269.663C473.453 269.887 473.127 270.215 472.889 270.648C472.655 271.075 472.538 271.592 472.538 272.199ZM487.346 279.231C486.272 279.231 485.335 278.985 484.535 278.493C483.734 278.001 483.113 277.312 482.671 276.427C482.228 275.542 482.007 274.508 482.007 273.325C482.007 272.137 482.228 271.098 482.671 270.208C483.113 269.318 483.734 268.627 484.535 268.135C485.335 267.642 486.272 267.396 487.346 267.396C488.42 267.396 489.357 267.642 490.158 268.135C490.958 268.627 491.58 269.318 492.022 270.208C492.465 271.098 492.686 272.137 492.686 273.325C492.686 274.508 492.465 275.542 492.022 276.427C491.58 277.312 490.958 278.001 490.158 278.493C489.357 278.985 488.42 279.231 487.346 279.231ZM487.354 277.359C488.05 277.359 488.626 277.175 489.084 276.808C489.541 276.44 489.879 275.95 490.098 275.338C490.322 274.727 490.434 274.053 490.434 273.317C490.434 272.587 490.322 271.915 490.098 271.304C489.879 270.687 489.541 270.193 489.084 269.82C488.626 269.447 488.05 269.261 487.354 269.261C486.653 269.261 486.071 269.447 485.609 269.82C485.151 270.193 484.811 270.687 484.587 271.304C484.368 271.915 484.259 272.587 484.259 273.317C484.259 274.053 484.368 274.727 484.587 275.338C484.811 275.95 485.151 276.44 485.609 276.808C486.071 277.175 486.653 277.359 487.354 277.359ZM496.984 272.199V279H494.755V267.545H496.895V269.41H497.037C497.3 268.803 497.713 268.316 498.275 267.948C498.841 267.58 499.555 267.396 500.415 267.396C501.195 267.396 501.879 267.56 502.466 267.888C503.052 268.212 503.507 268.694 503.83 269.335C504.153 269.977 504.315 270.77 504.315 271.714V279H502.085V271.983C502.085 271.152 501.869 270.504 501.436 270.036C501.004 269.564 500.41 269.328 499.654 269.328C499.137 269.328 498.677 269.44 498.275 269.663C497.877 269.887 497.561 270.215 497.327 270.648C497.099 271.075 496.984 271.592 496.984 272.199ZM507.885 283.295C507.552 283.295 507.248 283.268 506.975 283.213C506.702 283.164 506.498 283.109 506.363 283.049L506.9 281.222C507.308 281.332 507.671 281.379 507.989 281.364C508.307 281.349 508.588 281.23 508.832 281.006C509.08 280.782 509.299 280.417 509.488 279.91L509.764 279.149L505.573 267.545H507.959L510.86 276.435H510.98L513.88 267.545H516.274L511.554 280.529C511.335 281.125 511.057 281.63 510.719 282.043C510.38 282.46 509.978 282.773 509.51 282.982C509.043 283.191 508.501 283.295 507.885 283.295Z" fill="#D9D9D9"/>
<rect x="187.5" y="81.5" width="146" height="95" rx="14.5" stroke="#737373" stroke-width="3"/>
<g filter="url(#filter0_d_523_73)">
<rect x="404" y="80" width="149" height="98" rx="16" fill="url(#paint0_radial_523_73)"/>
</g>
<line x1="261" y1="112" x2="261" y2="145" stroke="#737373" stroke-width="4" stroke-linecap="round"/>
<line x1="277" y1="129" x2="244" y2="129" stroke="#737373" stroke-width="4" stroke-linecap="round"/>
<g filter="url(#filter1_d_523_73)">
<path fill-rule="evenodd" clip-rule="evenodd" d="M489.25 104H498C499.105 104 500 104.895 500 106V109.444V112.889C500 113.993 499.105 114.889 498 114.889H485.875C484.77 114.889 483.875 115.784 483.875 116.889V142.111V145.556C483.875 146.66 482.98 147.556 481.875 147.556H480.5C479.395 147.556 478.5 148.451 478.5 149.556V151C478.5 152.105 477.605 153 476.5 153H464.375C463.27 153 462.375 152.105 462.375 151V149.556C462.375 148.451 461.48 147.556 460.375 147.556H459C457.895 147.556 457 146.66 457 145.556V144.111C457 143.007 457.895 142.111 459 142.111H460.375C461.48 142.111 462.375 141.216 462.375 140.111V138.667C462.375 137.562 463.27 136.667 464.375 136.667H476.5C477.605 136.667 478.5 135.771 478.5 134.667V114.889V106C478.5 104.895 479.395 104 480.5 104H489.25Z" fill="white"/>
</g>
<rect x="-4" y="-5" width="107" height="323" fill="#252525" stroke="#3C3C3C" stroke-width="2"/>
<rect x="97" y="-3" width="23" height="323" fill="#2A2A2A" stroke="#3C3C3C" stroke-width="2"/>
<rect x="-21" y="51" width="96" height="34" rx="6" fill="#2C2C2C"/>
<line x1="64" y1="19" x2="64" y2="31" stroke="#575657" stroke-width="4" stroke-linecap="round"/>
<line x1="70" y1="25" x2="58" y2="25" stroke="#575657" stroke-width="4" stroke-linecap="round"/>
<line x1="64" y1="180" x2="64" y2="192" stroke="#575657" stroke-width="4" stroke-linecap="round"/>
<line x1="70" y1="186" x2="58" y2="186" stroke="#575657" stroke-width="4" stroke-linecap="round"/>
</g>
<defs>
<filter id="filter0_d_523_73" x="400" y="80" width="157" height="106" filterUnits="userSpaceOnUse" color-interpolation-filters="sRGB">
<feFlood flood-opacity="0" result="BackgroundImageFix"/>
<feColorMatrix in="SourceAlpha" type="matrix" values="0 0 0 0 0 0 0 0 0 0 0 0 0 0 0 0 0 0 127 0" result="hardAlpha"/>
<feOffset dy="4"/>
<feGaussianBlur stdDeviation="2"/>
<feComposite in2="hardAlpha" operator="out"/>
<feColorMatrix type="matrix" values="0 0 0 0 0 0 0 0 0 0 0 0 0 0 0 0 0 0 0.25 0"/>
<feBlend mode="normal" in2="BackgroundImageFix" result="effect1_dropShadow_523_73"/>
<feBlend mode="normal" in="SourceGraphic" in2="effect1_dropShadow_523_73" result="shape"/>
</filter>
<filter id="filter1_d_523_73" x="453" y="104" width="51" height="57" filterUnits="userSpaceOnUse" color-interpolation-filters="sRGB">
<feFlood flood-opacity="0" result="BackgroundImageFix"/>
<feColorMatrix in="SourceAlpha" type="matrix" values="0 0 0 0 0 0 0 0 0 0 0 0 0 0 0 0 0 0 127 0" result="hardAlpha"/>
<feOffset dy="4"/>
<feGaussianBlur stdDeviation="2"/>
<feComposite in2="hardAlpha" operator="out"/>
<feColorMatrix type="matrix" values="0 0 0 0 0 0 0 0 0 0 0 0 0 0 0 0 0 0 0.25 0"/>
<feBlend mode="normal" in2="BackgroundImageFix" result="effect1_dropShadow_523_73"/>
<feBlend mode="normal" in="SourceGraphic" in2="effect1_dropShadow_523_73" result="shape"/>
</filter>
<radialGradient id="paint0_radial_523_73" cx="0" cy="0" r="1" gradientUnits="userSpaceOnUse" gradientTransform="translate(412.5 87.5) rotate(39.0075) scale(128.69 195.661)">
<stop stop-color="#E17331"/>
<stop offset="1" stop-color="#9B08BC"/>
</radialGradient>
<clipPath id="clip0_523_73">
<rect width="514" height="313" fill="white"/>
</clipPath>
</defs>
</svg>
