<svg width="248" height="248" viewBox="0 0 248 248" fill="none" xmlns="http://www.w3.org/2000/svg">
<g clip-path="url(#clip0_623_51)">
<path d="M71.8633 28.6611C74.4478 26.113 78.6421 26.113 81.2266 28.6611L97.3164 44.5264C99.8946 47.069 99.8948 51.1869 97.3164 53.7295C94.7318 56.278 90.5367 56.2779 87.9521 53.7295C87.0115 52.802 85.4102 53.4613 85.4102 54.791V68.8428C85.4102 71.7201 86.5637 74.4751 88.6123 76.4951L94.3945 82.1963C97.6809 85.4368 97.6809 90.6863 94.3945 93.9268C91.1023 97.173 85.76 97.173 82.4678 93.9268L53.0801 64.9492C50.6829 62.5858 46.624 64.284 46.624 67.6504V72.9512C46.624 77.9055 48.6099 82.6533 52.1377 86.1318C54.7171 88.6754 54.7172 92.7944 52.1377 95.3379C49.5523 97.8872 45.3559 97.8872 42.7705 95.3379L26.6846 79.4766C24.105 76.933 24.105 72.8131 26.6846 70.2695C29.27 67.7204 33.4664 67.7203 36.0518 70.2695C36.9734 71.1783 38.5342 70.5258 38.5342 69.2314V55.1035C38.5342 52.2263 37.3808 49.4684 35.332 47.4482L29.4561 41.6553C26.1698 38.4148 26.1698 33.1653 29.4561 29.9248C32.7483 26.6785 38.0906 26.6786 41.3828 29.9248L70.8633 58.9932C73.2607 61.3571 77.3203 59.6589 77.3203 56.292V50.9102C77.3203 46.0068 75.3547 41.3081 71.8633 37.8652C69.2846 35.3225 69.2846 31.2038 71.8633 28.6611Z" stroke="#393939" stroke-width="1.5"/>
<path d="M204.185 19.0566C206.185 18.5176 208.243 19.7018 208.782 21.7015L211.4 31.4163C211.939 33.416 210.755 35.474 208.756 36.013L191.57 40.6451C190.37 40.9685 189.66 42.2034 189.983 43.4031L200.962 84.1351C201.501 86.1348 200.317 88.1928 198.317 88.7318L196.451 89.2347C195.251 89.5581 194.541 90.7931 194.864 91.9927L195.393 93.954C195.932 95.9536 194.747 98.0116 192.748 98.5507L175.561 103.183C173.562 103.722 171.504 102.538 170.965 100.538L170.436 98.5769C170.112 97.3774 168.878 96.6667 167.678 96.99L165.812 97.493C163.812 98.032 161.754 96.8478 161.215 94.8481L160.687 92.8878C160.148 90.8881 161.332 88.8301 163.332 88.2911L165.198 87.7881C166.397 87.4648 167.108 86.2299 166.785 85.0301L166.256 83.0689C165.717 81.0693 166.901 79.0113 168.901 78.4721L186.087 73.8398C187.287 73.5163 187.998 72.2815 187.674 71.0818L176.696 30.3499C176.157 28.3502 177.341 26.2921 179.34 25.7531L204.185 19.0566Z" stroke="#393939" stroke-width="1.5"/>
<path d="M142.185 143.057C144.185 142.518 146.243 143.702 146.782 145.701L149.4 155.416C149.939 157.416 148.755 159.474 146.756 160.013L129.57 164.645C128.37 164.968 127.66 166.203 127.983 167.403L138.962 208.135C139.501 210.135 138.317 212.193 136.317 212.732L134.451 213.235C133.251 213.558 132.541 214.793 132.864 215.993L133.393 217.954C133.932 219.954 132.747 222.012 130.748 222.551L113.561 227.183C111.562 227.722 109.504 226.538 108.965 224.538L108.436 222.577C108.112 221.377 106.878 220.667 105.678 220.99L103.812 221.493C101.812 222.032 99.7542 220.848 99.2152 218.848L98.6868 216.888C98.1478 214.888 99.332 212.83 101.332 212.291L103.198 211.788C104.397 211.465 105.108 210.23 104.785 209.03L104.256 207.069C103.717 205.069 104.901 203.011 106.901 202.472L124.087 197.84C125.287 197.516 125.998 196.281 125.674 195.082L114.696 154.35C114.157 152.35 115.341 150.292 117.34 149.753L142.185 143.057Z" stroke="#393939" stroke-width="1.5"/>
<path d="M257.863 152.661C260.448 150.113 264.642 150.113 267.227 152.661L283.316 168.526C285.895 171.069 285.895 175.187 283.316 177.729C280.732 180.278 276.537 180.278 273.952 177.729C273.012 176.802 271.41 177.461 271.41 178.791V192.843C271.41 195.72 272.564 198.475 274.612 200.495L280.395 206.196C283.681 209.437 283.681 214.686 280.395 217.927C277.102 221.173 271.76 221.173 268.468 217.927L239.08 188.949C236.683 186.586 232.624 188.284 232.624 191.65V196.951C232.624 201.905 234.61 206.653 238.138 210.132C240.717 212.675 240.717 216.794 238.138 219.338C235.552 221.887 231.356 221.887 228.771 219.338L212.685 203.477C210.105 200.933 210.105 196.813 212.685 194.27C215.27 191.72 219.466 191.72 222.052 194.27C222.973 195.178 224.534 194.526 224.534 193.231V179.104C224.534 176.226 223.381 173.468 221.332 171.448L215.456 165.655C212.17 162.415 212.17 157.165 215.456 153.925C218.748 150.679 224.091 150.679 227.383 153.925L256.863 182.993C259.261 185.357 263.32 183.659 263.32 180.292V174.91C263.32 170.007 261.355 165.308 257.863 161.865C255.285 159.323 255.285 155.204 257.863 152.661Z" stroke="#393939" stroke-width="1.5"/>
<path d="M9.86328 152.661C12.4478 150.113 16.6421 150.113 19.2266 152.661L35.3164 168.526C37.8946 171.069 37.8948 175.187 35.3164 177.729C32.7318 180.278 28.5367 180.278 25.9521 177.729C25.0115 176.802 23.4102 177.461 23.4102 178.791V192.843C23.4102 195.72 24.5637 198.475 26.6123 200.495L32.3945 206.196C35.6809 209.437 35.6809 214.686 32.3945 217.927C29.1023 221.173 23.76 221.173 20.4678 217.927L-8.91992 188.949C-11.3171 186.586 -15.376 188.284 -15.376 191.65V196.951C-15.376 201.905 -13.3901 206.653 -9.8623 210.132C-7.28291 212.675 -7.28284 216.794 -9.8623 219.338C-12.4477 221.887 -16.6441 221.887 -19.2295 219.338L-35.3154 203.477C-37.895 200.933 -37.895 196.813 -35.3154 194.27C-32.73 191.72 -28.5336 191.72 -25.9482 194.27C-25.0266 195.178 -23.4658 194.526 -23.4658 193.231V179.104C-23.4658 176.226 -24.6192 173.468 -26.668 171.448L-32.5439 165.655C-35.8302 162.415 -35.8302 157.165 -32.5439 153.925C-29.2517 150.679 -23.9094 150.679 -20.6172 153.925L8.86328 182.993C11.2607 185.357 15.3203 183.659 15.3203 180.292V174.91C15.3203 170.007 13.3547 165.308 9.86328 161.865C7.28456 159.323 7.28456 155.204 9.86328 152.661Z" stroke="#393939" stroke-width="1.5"/>
</g>
<defs>
<clipPath id="clip0_623_51">
<rect width="248" height="248" fill="white"/>
</clipPath>
</defs>
</svg>
