<svg width="25" height="25" viewBox="0 0 25 25" fill="none" xmlns="http://www.w3.org/2000/svg">
<path d="M19.1113 0.444443C21.8726 0.444563 24.1113 2.68309 24.1113 5.44444V19.5558C24.1112 22.317 21.8726 24.5557 19.1113 24.5558H5C2.23865 24.5558 0.000117327 22.3171 0 19.5558V5.44444C2.92333e-06 2.68302 2.23858 0.444443 5 0.444443H19.1113ZM12.3906 5.72862C12.1146 5.72862 11.8909 5.95268 11.8906 6.22862V14.2569C11.8906 14.533 11.6667 14.7568 11.3906 14.7569H7.93164C7.65551 14.7569 7.43165 14.9808 7.43164 15.2569V15.7618C7.43153 16.0378 7.20765 16.2618 6.93164 16.2618H6.44531C6.16917 16.2618 5.94531 16.4857 5.94531 16.7618V17.2667C5.94555 17.5426 6.16932 17.7667 6.44531 17.7667H6.93164C7.20772 17.7668 7.43164 17.9906 7.43164 18.2667V18.7706C7.43164 19.0468 7.6555 19.2706 7.93164 19.2706H11.3906C11.6667 19.2705 11.8906 19.0467 11.8906 18.7706V18.2667C11.8906 17.9906 12.1145 17.7667 12.3906 17.7667H12.877C13.1528 17.7666 13.3767 17.5426 13.377 17.2667V9.23839C13.377 8.96225 13.6008 8.73839 13.877 8.73839H17.3359C17.6119 8.73822 17.8359 8.51441 17.8359 8.23839V6.22862C17.8357 5.95279 17.6118 5.72879 17.3359 5.72862H12.3906Z" fill="#D9D9D9"/>
</svg>
